<?xml version="1.0" encoding="utf-8"?>
<!-- Generator: Adobe Illustrator 19.0.0, SVG Export Plug-In . SVG Version: 6.00 Build 0)  -->
<svg version="1.1" id="Layer_1" xmlns="http://www.w3.org/2000/svg" xmlns:xlink="http://www.w3.org/1999/xlink" x="0px" y="0px"
	 viewBox="0 0 170 35" style="enable-background:new 0 0 170 35;" xml:space="preserve">
<style type="text/css">
	.st0{fill:#FFCE26;}
	.st1{fill:#0879B8;}
	.st2{fill:#069B4F;}
	.st3{fill:#CB2034;}
	.st4{fill:#010101;}
</style>
<path id="XMLID_23_" class="st0" d="M161.2,3c9.8,6.8,5.7,22.5-4.7,24.2l0,0C169.8,27.2,174.2,9,161.2,3L161.2,3z"/>
<path id="XMLID_22_" class="st1" d="M150.8,2.9c11.6-1.7,16.4,12.6,11.3,19.2C170.5,13.7,163.8-1.3,150.8,2.9L150.8,2.9z"/>
<path id="XMLID_21_" class="st2" d="M144,9.8c5.7-8.5,17.6-3.3,18.8,5.3C164.2,4.6,150.2-1.3,144,9.8L144,9.8z"/>
<path id="XMLID_20_" class="st3" d="M143.7,16.2c1.4-8.8,12.8-9.7,17-3.5C157.3,3.9,143.9,5,143.7,16.2L143.7,16.2z"/>
<path id="XMLID_25_" class="st4" d="M1.5,27.2h3l0.7-9.1c0-0.3,0-0.6,0-0.9s0-0.6,0-0.8c0-0.3,0-0.5,0-0.6s0-0.3,0-0.3h0
	c0,0,0,0.1,0.1,0.3s0.1,0.4,0.2,0.6c0.1,0.3,0.2,0.6,0.3,0.8c0.1,0.3,0.2,0.6,0.3,0.8l2.6,6.3h2.6l2.6-6.3c0.1-0.3,0.2-0.5,0.3-0.8
	c0.1-0.3,0.2-0.6,0.3-0.8s0.2-0.5,0.2-0.6c0-0.2,0.1-0.3,0.1-0.3h0c0,0,0,0.1,0,0.3s0,0.3,0,0.6c0,0.3,0,0.5,0,0.8s0,0.6,0,0.9
	l0.7,9.1h2.9l-1.3-16.3H14l-3.2,8c-0.1,0.3-0.2,0.5-0.3,0.8c-0.1,0.3-0.2,0.5-0.3,0.8s-0.1,0.4-0.2,0.6c0,0.2-0.1,0.2-0.1,0.3h0
	c0,0,0-0.1-0.1-0.3c0-0.2-0.1-0.3-0.2-0.6c-0.1-0.3-0.2-0.5-0.3-0.8c-0.1-0.3-0.2-0.5-0.3-0.8l-3.2-8H2.8L1.5,27.2L1.5,27.2z
	 M20.6,23.8c0,0.6,0.1,1.1,0.3,1.5c0.2,0.5,0.5,0.8,0.9,1.2c0.4,0.3,0.8,0.6,1.2,0.7c0.5,0.2,1,0.3,1.5,0.3s1-0.1,1.4-0.2
	c0.4-0.1,0.7-0.3,1-0.5s0.5-0.4,0.7-0.6c0.2-0.2,0.3-0.4,0.4-0.5c0.1-0.1,0.1-0.2,0.1-0.2h0c0,0,0,0.1,0,0.3c0,0.2,0,0.3,0,0.6v0.9
	h2.7v-7.3c0-1-0.2-1.8-0.6-2.5c-0.4-0.7-0.9-1.2-1.7-1.6c-0.7-0.3-1.6-0.6-2.6-0.6c-0.6,0-1.1,0-1.5,0.1c-0.5,0.1-0.9,0.2-1.3,0.3
	c-0.4,0.1-0.7,0.3-0.9,0.4c-0.3,0.1-0.5,0.3-0.6,0.3c-0.1,0.1-0.2,0.1-0.2,0.1l1.1,2.1c0,0,0.1-0.1,0.3-0.2c0.2-0.1,0.4-0.3,0.7-0.4
	c0.3-0.1,0.6-0.3,1-0.4c0.4-0.1,0.8-0.2,1.2-0.2c0.4,0,0.8,0,1.2,0.2c0.3,0.1,0.6,0.3,0.8,0.6s0.3,0.7,0.3,1.2v0.2h-0.4
	c-0.3,0-0.7,0-1.2,0c-0.5,0-0.9,0.1-1.5,0.2s-1,0.2-1.5,0.4c-0.5,0.2-0.9,0.4-1.4,0.7c-0.4,0.3-0.7,0.6-1,1.1
	C20.8,22.7,20.7,23.2,20.6,23.8L20.6,23.8z M23.6,23.7c0-0.3,0.1-0.6,0.3-0.8c0.2-0.2,0.4-0.4,0.7-0.5c0.3-0.1,0.6-0.3,0.9-0.3
	c0.3-0.1,0.7-0.1,1-0.1c0.3,0,0.7,0,1,0H28v0.3c0,0.3-0.1,0.7-0.2,1.1s-0.3,0.7-0.6,1s-0.5,0.6-0.9,0.7c-0.3,0.2-0.7,0.3-1.1,0.3
	c-0.4,0-0.7-0.1-1-0.2c-0.3-0.1-0.5-0.3-0.6-0.6C23.6,24.2,23.6,23.9,23.6,23.7L23.6,23.7z M33.8,27.2h2.9v-5.3c0-0.3,0-0.6,0-0.8
	c0-0.3,0.1-0.5,0.2-0.8c0.1-0.5,0.4-0.9,0.6-1.2c0.3-0.3,0.6-0.6,1.1-0.9s0.9-0.3,1.4-0.3c0.5,0,0.9,0.1,1.2,0.3
	c0.3,0.2,0.5,0.5,0.6,0.8c0.1,0.3,0.2,0.8,0.1,1.2v6.9h2.9v-7.5c0-1-0.2-1.9-0.5-2.5c-0.3-0.6-0.8-1.2-1.4-1.5
	c-0.6-0.3-1.3-0.5-2.2-0.5c-0.6,0-1.1,0.1-1.6,0.3c-0.5,0.2-0.9,0.3-1.2,0.6c-0.3,0.3-0.6,0.5-0.9,0.8c-0.2,0.3-0.4,0.6-0.5,0.8h0
	c0,0,0-0.1,0-0.3c0-0.2,0-0.3,0-0.6v-1.4h-2.8L33.8,27.2L33.8,27.2z M46.9,23.8c0,0.6,0.1,1.1,0.3,1.5c0.2,0.5,0.5,0.8,0.9,1.2
	c0.4,0.3,0.8,0.6,1.2,0.7c0.5,0.2,1,0.3,1.5,0.3c0.5,0,1-0.1,1.4-0.2c0.4-0.1,0.7-0.3,1-0.5s0.5-0.4,0.7-0.6
	c0.2-0.2,0.3-0.4,0.4-0.5c0.1-0.1,0.1-0.2,0.1-0.2h0c0,0,0,0.1,0,0.3c0,0.2,0,0.3,0,0.6v0.9h2.7v-7.3c0-1-0.2-1.8-0.6-2.5
	c-0.4-0.7-0.9-1.2-1.7-1.6c-0.7-0.3-1.6-0.6-2.6-0.6c-0.6,0-1.1,0-1.5,0.1c-0.5,0.1-0.9,0.2-1.3,0.3c-0.4,0.1-0.7,0.3-0.9,0.4
	c-0.3,0.1-0.5,0.3-0.6,0.3c-0.1,0.1-0.2,0.1-0.2,0.1l1.1,2.1c0,0,0.1-0.1,0.3-0.2c0.2-0.1,0.4-0.3,0.7-0.4c0.3-0.1,0.6-0.3,1-0.4
	c0.4-0.1,0.8-0.2,1.2-0.2c0.4,0,0.8,0,1.2,0.2c0.3,0.1,0.6,0.3,0.8,0.6c0.2,0.3,0.3,0.7,0.3,1.2v0.2h-0.4c-0.3,0-0.7,0-1.2,0
	c-0.5,0-0.9,0.1-1.5,0.2c-0.5,0.1-1,0.2-1.5,0.4c-0.5,0.2-0.9,0.4-1.4,0.7c-0.4,0.3-0.7,0.6-1,1.1C47,22.7,46.9,23.2,46.9,23.8
	L46.9,23.8z M49.8,23.7c0-0.3,0.1-0.6,0.3-0.8c0.2-0.2,0.4-0.4,0.7-0.5c0.3-0.1,0.6-0.3,0.9-0.3c0.3-0.1,0.7-0.1,1-0.1
	c0.3,0,0.7,0,1,0h0.5v0.3c0,0.3-0.1,0.7-0.2,1.1c-0.1,0.3-0.3,0.7-0.6,1c-0.3,0.3-0.5,0.6-0.9,0.7c-0.3,0.2-0.7,0.3-1.1,0.3
	c-0.4,0-0.7-0.1-1-0.2c-0.3-0.1-0.5-0.3-0.6-0.6C49.9,24.2,49.8,23.9,49.8,23.7L49.8,23.7z M61.3,28.7L60.4,31
	c0.4,0.2,0.8,0.4,1.2,0.5c0.5,0.1,0.9,0.3,1.4,0.3c0.5,0.1,1,0.1,1.5,0.1c0.6,0,1.2,0,1.8-0.2c0.6-0.1,1.2-0.3,1.7-0.6
	c0.5-0.3,1-0.6,1.4-1.1c0.4-0.4,0.7-0.9,0.9-1.5c0.2-0.6,0.3-1.3,0.3-2.1V15.5h-2.7v0.9c0,0.1,0,0.2,0,0.2c0,0,0,0.1,0,0.1h-0.1
	c0,0,0,0-0.1-0.2c-0.1-0.1-0.2-0.2-0.4-0.4c-0.2-0.1-0.4-0.3-0.6-0.4c-0.3-0.1-0.6-0.3-1-0.4c-0.4-0.1-0.8-0.2-1.3-0.2
	c-0.9,0-1.6,0.2-2.2,0.5s-1.2,0.7-1.6,1.2c-0.4,0.5-0.8,1.2-1,1.8c-0.2,0.7-0.3,1.5-0.3,2.3c0,0.8,0.1,1.6,0.3,2.3
	c0.2,0.7,0.6,1.3,1,1.9c0.4,0.6,1,1,1.6,1.3s1.4,0.5,2.2,0.5c0.8,0,1.4-0.1,2-0.4c0.5-0.3,0.9-0.6,1.3-1.2h0c0,0,0,0,0,0.1
	c0,0.1,0,0.1,0,0.3s0,0.2,0,0.3v0.7c0,0.5-0.1,0.9-0.3,1.3c-0.2,0.3-0.4,0.6-0.7,0.9c-0.3,0.2-0.6,0.4-1,0.5
	c-0.4,0.1-0.8,0.1-1.3,0.1c-0.4,0-0.9,0-1.2-0.1c-0.4-0.1-0.7-0.2-1-0.3c-0.3-0.1-0.5-0.2-0.7-0.3C61.3,28.8,61.3,28.7,61.3,28.7
	L61.3,28.7z M65.2,24.5c-0.6,0-1.2-0.2-1.6-0.5c-0.4-0.3-0.8-0.7-1-1.2s-0.3-1.2-0.3-1.8c0-0.6,0.1-1.2,0.3-1.7
	c0.2-0.5,0.5-0.9,0.9-1.1c0.4-0.3,0.9-0.4,1.5-0.4c0.4,0,0.8,0,1.1,0.2c0.3,0.1,0.6,0.3,0.9,0.5c0.3,0.3,0.5,0.6,0.6,1
	c0.1,0.4,0.2,1,0.2,1.6s-0.1,1.2-0.2,1.6c-0.1,0.4-0.3,0.8-0.6,1.1c-0.3,0.3-0.6,0.5-0.9,0.6C65.8,24.4,65.5,24.5,65.2,24.5
	L65.2,24.5z M73.1,21.4c0,0.9,0.1,1.6,0.4,2.4c0.3,0.7,0.7,1.4,1.2,1.9c0.6,0.6,1.2,1,2,1.3c0.8,0.3,1.6,0.5,2.6,0.5
	c0.6,0,1.1,0,1.6-0.2c0.5-0.1,0.9-0.3,1.3-0.4c0.4-0.2,0.7-0.3,1-0.5c0.3-0.2,0.5-0.3,0.6-0.4c0.1-0.1,0.2-0.2,0.2-0.2l-1.1-2.1
	c0,0,0,0-0.2,0.1c-0.1,0.1-0.3,0.2-0.5,0.3c-0.2,0.1-0.4,0.3-0.7,0.4c-0.3,0.1-0.6,0.2-0.9,0.3c-0.3,0.1-0.7,0.1-1.1,0.1
	c-0.4,0-0.9-0.1-1.2-0.2c-0.4-0.1-0.8-0.3-1.1-0.6c-0.3-0.3-0.6-0.6-0.8-1c-0.2-0.4-0.3-0.9-0.4-1.3h8c0,0,0,0,0-0.1
	c0-0.1,0-0.2,0-0.3c0-0.1,0-0.3,0-0.4c0-0.1,0-0.2,0-0.3c0-0.8-0.1-1.5-0.3-2.2c-0.2-0.7-0.6-1.2-1-1.8c-0.4-0.5-1-0.9-1.6-1.2
	c-0.6-0.3-1.4-0.4-2.2-0.4c-0.9,0-1.7,0.2-2.4,0.5c-0.7,0.3-1.3,0.7-1.9,1.2c-0.5,0.6-0.9,1.2-1.2,1.9
	C73.2,19.6,73.1,20.4,73.1,21.4L73.1,21.4z M76.1,19.9c0.1-0.5,0.3-0.9,0.5-1.3c0.3-0.3,0.6-0.6,0.9-0.8c0.4-0.2,0.8-0.3,1.3-0.3
	c0.4,0,0.8,0.1,1.2,0.3c0.3,0.2,0.6,0.5,0.8,0.8c0.2,0.3,0.3,0.8,0.3,1.3L76.1,19.9L76.1,19.9z M87.1,27.2h9.8v-2h-7.5V20h5.8v-2
	h-5.8v-5h7.1v-2h-9.4L87.1,27.2L87.1,27.2z M99.8,27.2h2.2v-5.4c0-0.3,0-0.6,0-0.8c0-0.3,0.1-0.5,0.1-0.7c0.2-0.6,0.4-1.1,0.8-1.5
	c0.3-0.4,0.8-0.8,1.3-1c0.5-0.3,1-0.3,1.6-0.3c0.5,0,0.9,0.1,1.1,0.2c0.3,0.1,0.5,0.3,0.7,0.6c0.2,0.3,0.3,0.6,0.3,0.9
	c0,0.3,0.1,0.7,0.1,1.2v6.9h2.2v-7.4c0-1.5-0.3-2.6-1-3.3c-0.6-0.7-1.7-1.1-3-1.1c-0.6,0-1.2,0.1-1.7,0.3s-0.9,0.4-1.3,0.7
	c-0.3,0.3-0.6,0.6-0.9,0.9c-0.2,0.3-0.4,0.6-0.5,0.9h0c0,0,0,0,0-0.1c0-0.1,0-0.2,0-0.3c0-0.1,0-0.3,0-0.4v-1.5h-2.1L99.8,27.2
	L99.8,27.2z M114.6,29.3l-0.7,1.8c0.4,0.2,0.8,0.3,1.2,0.5c0.4,0.1,0.9,0.3,1.4,0.3c0.5,0.1,0.9,0.1,1.4,0.1c0.6,0,1.2,0,1.7-0.2
	c0.6-0.1,1.1-0.3,1.6-0.6c0.5-0.3,0.9-0.6,1.3-1c0.4-0.4,0.7-0.9,0.9-1.5c0.2-0.6,0.3-1.2,0.3-2V15.7h-2.1v1.1c0,0.1,0,0.2,0,0.3
	s0,0.1,0,0.1h0c0,0,0-0.1-0.1-0.2c-0.1-0.1-0.2-0.3-0.4-0.4c-0.2-0.2-0.4-0.3-0.7-0.5c-0.3-0.2-0.6-0.3-1-0.4
	c-0.4-0.1-0.9-0.2-1.5-0.2c-0.8,0-1.5,0.1-2.1,0.4c-0.6,0.3-1.2,0.7-1.6,1.2c-0.4,0.5-0.8,1.1-1,1.8c-0.2,0.7-0.3,1.5-0.3,2.3
	c0,0.9,0.1,1.6,0.3,2.4c0.2,0.7,0.6,1.3,1,1.9c0.4,0.6,1,0.9,1.6,1.2s1.4,0.5,2.2,0.5s1.5-0.2,2.1-0.5c0.6-0.3,1-0.8,1.3-1.3h0
	c0,0,0,0,0,0.1c0,0.1,0,0.2,0,0.3c0,0.1,0,0.2,0,0.3v0.9c0,0.6-0.1,1.1-0.3,1.5c-0.2,0.4-0.5,0.7-0.8,1c-0.3,0.3-0.7,0.4-1.2,0.6
	s-0.9,0.2-1.4,0.2c-0.4,0-0.9,0-1.2-0.1c-0.4-0.1-0.7-0.2-1-0.3c-0.3-0.1-0.5-0.2-0.7-0.3C114.7,29.3,114.6,29.3,114.6,29.3
	L114.6,29.3z M118.4,25.1c-0.7,0-1.3-0.2-1.8-0.5s-0.9-0.8-1.2-1.4c-0.3-0.6-0.4-1.3-0.4-2.1c0-0.8,0.1-1.5,0.4-2.1
	c0.3-0.6,0.6-1,1.1-1.3c0.5-0.3,1-0.5,1.7-0.5c0.5,0,0.9,0,1.3,0.2c0.4,0.1,0.7,0.3,1,0.6c0.3,0.3,0.5,0.7,0.7,1.2
	c0.2,0.5,0.3,1.1,0.3,1.9c0,0.8-0.1,1.4-0.3,1.9c-0.2,0.5-0.4,0.9-0.7,1.2c-0.3,0.3-0.6,0.5-1,0.6C119.2,25,118.8,25.1,118.4,25.1
	L118.4,25.1z M127.1,13.3h2.2V11h-2.2V13.3L127.1,13.3z M127.1,27.2h2.2V15.6h-2.2V27.2L127.1,27.2z M132.8,27.2h2.2v-5.4
	c0-0.3,0-0.6,0-0.8c0-0.3,0.1-0.5,0.1-0.7c0.2-0.6,0.4-1.1,0.8-1.5c0.3-0.4,0.8-0.8,1.3-1c0.5-0.3,1-0.3,1.6-0.3
	c0.5,0,0.9,0.1,1.1,0.2c0.3,0.1,0.5,0.3,0.7,0.6c0.2,0.3,0.3,0.6,0.3,0.9c0,0.3,0.1,0.7,0.1,1.2v6.9h2.2v-7.4c0-1.5-0.3-2.6-1-3.3
	c-0.6-0.7-1.7-1.1-3-1.1c-0.6,0-1.2,0.1-1.7,0.3c-0.5,0.2-0.9,0.4-1.3,0.7c-0.3,0.3-0.6,0.6-0.9,0.9c-0.2,0.3-0.4,0.6-0.5,0.9h0
	c0,0,0,0,0-0.1c0-0.1,0-0.2,0-0.3c0-0.1,0-0.3,0-0.4v-1.5h-2.1L132.8,27.2L132.8,27.2z M145.8,21.4c0,0.9,0.2,1.7,0.4,2.4
	c0.3,0.7,0.7,1.4,1.2,1.9c0.6,0.6,1.2,1,1.9,1.3c0.8,0.3,1.6,0.5,2.5,0.5c0.6,0,1.1,0,1.5-0.2c0.5-0.1,0.9-0.3,1.2-0.4
	c0.3-0.2,0.7-0.3,0.9-0.5c0.3-0.2,0.5-0.3,0.6-0.4c0.1-0.1,0.2-0.2,0.2-0.2l-0.9-1.6c0,0,0,0-0.2,0.1s-0.3,0.2-0.5,0.3
	c-0.2,0.1-0.4,0.3-0.7,0.4c-0.3,0.1-0.6,0.3-0.9,0.3c-0.3,0.1-0.7,0.1-1.1,0.1c-0.5,0-1-0.1-1.5-0.3c-0.5-0.2-0.9-0.4-1.2-0.7
	c-0.4-0.3-0.6-0.7-0.9-1.2c-0.2-0.5-0.3-1-0.4-1.7h8.4c0,0,0-0.1,0-0.2c0-0.1,0-0.3,0-0.4c0-0.1,0-0.3,0-0.4c0-0.8-0.1-1.5-0.3-2.1
	c-0.2-0.6-0.5-1.2-0.9-1.7c-0.4-0.5-0.9-0.9-1.6-1.2c-0.6-0.3-1.3-0.4-2.2-0.4c-0.8,0-1.6,0.1-2.3,0.4c-0.7,0.3-1.3,0.7-1.8,1.2
	c-0.5,0.5-0.9,1.2-1.2,1.9C145.9,19.6,145.8,20.5,145.8,21.4L145.8,21.4z M148.2,20c0.1-0.6,0.3-1.2,0.6-1.6c0.3-0.4,0.7-0.8,1.2-1
	c0.5-0.2,1-0.3,1.5-0.3c0.5,0,0.9,0.1,1.4,0.3c0.4,0.2,0.7,0.6,1,1s0.4,1,0.4,1.7L148.2,20L148.2,20z"/>
</svg>
