<?xml version="1.0" standalone="no"?>
<!DOCTYPE svg PUBLIC "-//W3C//DTD SVG 1.1//EN" "http://www.w3.org/Graphics/SVG/1.1/DTD/svg11.dtd" >
<svg xmlns="http://www.w3.org/2000/svg">
<metadata>
This is a custom SVG webfont generated by Font Squirrel.
Copyright   :  2001 House IndustriesBrand Design Co Inc All Rights Reserved
Designer    : gr
Foundry URL : http
</metadata>
<defs>
<font id="NeutraDisplayLight" horiz-adv-x="290" >
<font-face units-per-em="2048" ascent="1597" descent="-451" />
<missing-glyph horiz-adv-x="372" />
<glyph unicode=" "  horiz-adv-x="372" />
<glyph unicode="&#x09;" horiz-adv-x="372" />
<glyph unicode="&#xa0;" horiz-adv-x="372" />
<glyph unicode="!" horiz-adv-x="413" d="M150 45q0 25 17 41t39.5 16t40 -16t17.5 -41t-17.5 -41t-40 -16t-39.5 16t-17 41zM174 322v1071h66v-1071h-66z" />
<glyph unicode="&#x22;" horiz-adv-x="432" d="M86 1393h70l-11 -299h-49zM276 1393h70l-10 -299h-49z" />
<glyph unicode="#" horiz-adv-x="831" d="M41 403v54h164l67 270h-170v53h183l61 244h57l-61 -244h238l61 244h57l-61 -244h154v-53h-166l-68 -270h172v-54h-186l-58 -231h-57l57 231h-237l-58 -231h-57l57 231h-149zM262 457h238l67 270h-237z" />
<glyph unicode="$" horiz-adv-x="819" d="M35 217l55 23q74 -186 275 -199v475l-29 8q-121 35 -183.5 96.5t-62.5 174.5q0 109 81 175t194 70v193h59v-195q184 -18 260 -174l-49 -24q-68 131 -211 143v-422l47 -14q141 -43 205.5 -110.5t64.5 -180.5q0 -117 -87 -190.5t-230 -79.5v-224h-59v224q-121 8 -208 69.5 t-122 161.5zM152 795q0 -94 46 -138.5t152 -74.5l15 -4v407q-92 -4 -152.5 -51t-60.5 -139zM424 39q115 6 185.5 64.5t70.5 152.5q0 98 -51 147.5t-174 85.5l-31 9v-2v-2v-2v-3v-2v-2v-2v-2v-2v-2v-2v-2v-2v-2v-2v-2v-2v-2v-2v-2v-2v-2v-2v-2v-3v-2v-2v-2v-2v-2v-2v-2v-2v-2 v-2v-2v-2v-2v-2v-2v-2v-2v-2v-2v-2v-3v-2v-4v-2v-2v-2v-2v-2v-2v-4v-2v-2v-2v-2v-4v-2v-2v-3v-4v-2v-2v-2v-4v-2v-2v-4v-2v-2v-4v-2v-2v-4v-2v-3v-4v-2v-2v-4v-2v-4v-2v-4v-2v-2v-4v-2v-4v-2v-5v-2v-4v-2v-4v-2v-4v-2v-4v-2v-4v-2v-4v-2v-5v-4v-2v-4v-2v-4v-4v-2v-4v-2v-4 v-4v-2v-5v-2v-4v-4v-2v-4v-4v-2v-4v-4v-4v-2v-5v-4v-2v-4v-4v-4v-2v-4v-4v-4v-2v-4v-5v-4v-2v-4v-4v-4v-4v-2v-4v-4v-4v-5v-2v-4v-18z" />
<glyph unicode="%" horiz-adv-x="1427" d="M63 751.5q0 122.5 86.5 205.5t203 83t202.5 -83t86 -205.5t-86 -205.5t-202.5 -83t-203 83t-86.5 205.5zM125 751.5q0 -102.5 65.5 -168t162 -65.5t162 65.5t65.5 168t-65.5 168t-162 65.5t-162 -65.5t-65.5 -168zM365 0l632 1024h66l-633 -1024h-65zM786 272.5 q0 122.5 86 205.5t203 83t203 -83t86 -205.5t-86 -205.5t-203 -83t-203 83t-86 205.5zM848 272.5q0 -102.5 65.5 -168t161.5 -65.5t162 65.5t66 168t-66 168t-162 65.5t-161.5 -65.5t-65.5 -168z" />
<glyph unicode="&#x26;" horiz-adv-x="1282" d="M86 352q0 59 13.5 111.5t47 97.5t60 76t85 71t85 56t96.5 57l-53 62q-113 133 -113 264q0 115 75 188.5t189 73.5q111 0 179.5 -76t68.5 -186q0 -178 -256 -338l371 -442q61 162 61 395h62q0 -258 -80 -447l264 -315h-82l-213 254q-150 -270 -448 -270q-172 0 -292 101 t-120 267zM152 352q0 -139 100 -224t246 -85q279 0 407 260l-395 473q-182 -109 -240 -162q-118 -108 -118 -262zM371 1147q0 -111 92 -219l63 -76q229 143 230 295q0 90 -51.5 146.5t-133.5 56.5q-88 0 -144 -55.5t-56 -147.5z" />
<glyph unicode="'" horiz-adv-x="241" d="M86 1393h70l-11 -299h-49z" />
<glyph unicode="(" horiz-adv-x="520" d="M82 596q0 512 334 874l43 -38q-311 -352 -311.5 -835.5t311.5 -836.5l-43 -39q-334 363 -334 875z" />
<glyph unicode=")" horiz-adv-x="520" d="M61 -240q311 352 311.5 835.5t-311.5 836.5l43 38q334 -362 334 -874t-334 -875z" />
<glyph unicode="*" horiz-adv-x="704" d="M139 1065l172 88l-172 88l29 53l164 -106l-10 205h61l-10 -205l164 106l28 -53l-172 -88l172 -88l-28 -53l-164 106l10 -205h-61l10 205l-164 -106z" />
<glyph unicode="+" horiz-adv-x="638" d="M80 469v57h209v232h61v-232h209v-57h-209v-231h-61v231h-209z" />
<glyph unicode="," d="M88 45q0 25 17.5 41t40 16t40 -16t17.5 -41q0 -16 -6 -29l-68 -159h-39l37 135q-39 8 -39 53z" />
<glyph unicode="-" horiz-adv-x="454" d="M80 328v53h295v-53h-295z" />
<glyph unicode="." d="M88 45q0 25 17.5 41t40 16t40 -16t17.5 -41t-17.5 -41t-40 -16t-40 16t-17.5 41z" />
<glyph unicode="/" horiz-adv-x="825" d="M27 -262l635 1716h65l-635 -1716h-65z" />
<glyph unicode="0" horiz-adv-x="1220" d="M80 512q0 225 154.5 376.5t375.5 151.5t376 -151.5t155 -376.5t-155 -376.5t-376 -151.5t-375.5 151.5t-154.5 376.5zM145 512q0 -203 133.5 -337t332 -134t331.5 134t133 337t-133 337t-331.5 134t-332 -134t-133.5 -337z" />
<glyph unicode="1" horiz-adv-x="503" d="M76 967v57h246v-1024h-64v967h-182z" />
<glyph unicode="2" horiz-adv-x="835" d="M41 0v8l356 340q61 59 96 95t83.5 94.5t71 111.5t22.5 107q0 117 -70 172t-170 55q-197 0 -266 -213l-55 18q35 119 121.5 185.5t199.5 66.5q121 0 212 -71.5t91 -212.5q0 -57 -24.5 -117.5t-75.5 -123t-92 -104.5t-109 -106l-266 -250h590v-55h-715z" />
<glyph unicode="3" horiz-adv-x="849" d="M33 209l55 27q94 -195 309 -195q131 0 214 80t83 213q0 135 -79.5 213t-221.5 78q-70 0 -147 -33l-4 6l348 371h-488v55h605v-8l-316 -338q164 4 266.5 -91t102.5 -253t-103.5 -254t-259.5 -96q-121 0 -220 60.5t-144 164.5z" />
<glyph unicode="4" horiz-adv-x="897" d="M37 211v8l647 830h8v-783h142v-55h-142v-211h-61v211h-594zM145 266h486v629z" />
<glyph unicode="5" horiz-adv-x="856" d="M63 156l52 34q86 -150 291 -149q129 0 209.5 84t80.5 219q0 137 -78.5 219t-224.5 82q-152 0 -264 -96l-6 2v473h559v-55h-500v-324q88 57 211 57q166 0 267.5 -99t101.5 -259t-100.5 -260t-255.5 -100q-119 0 -208.5 48t-134.5 124z" />
<glyph unicode="6" horiz-adv-x="882" d="M80 336q0 113 104 264l293 424h70l-268 -389q68 55 174 55q147 0 248.5 -102.5t101.5 -251.5q0 -147 -103.5 -249.5t-257 -102.5t-258 101t-104.5 251zM145 336q0 -129 82 -212t215 -83q131 0 213 83t82 212q0 135 -78.5 216t-212.5 81q-131 0 -216 -88t-85 -209z" />
<glyph unicode="7" horiz-adv-x="831" d="M70 969v55h721v-8l-529 -1016h-67l503 969h-628z" />
<glyph unicode="8" horiz-adv-x="864" d="M78 301q0 104 61.5 183t163.5 112q-131 63 -131 207q0 100 73.5 168.5t186.5 68.5t186.5 -68.5t73.5 -168.5q0 -143 -131 -207q102 -33 163.5 -111.5t61.5 -183.5q0 -135 -98 -226t-256 -91t-256 91t-98 226zM143 303q0 -115 82 -189.5t207 -74.5t207 74.5t82 189.5 q0 117 -79 189.5t-210 72.5t-210 -72.5t-79 -189.5zM236 801q0 -82 54 -132.5t142 -50.5t142.5 50.5t54.5 132.5t-55.5 133t-141.5 51t-141 -51t-55 -133z" />
<glyph unicode="9" horiz-adv-x="882" d="M80 688q0 147 103.5 249.5t257 102.5t258 -101t104.5 -251q0 -113 -105 -264l-292 -424h-70l268 389q-68 -55 -174 -55q-147 0 -248.5 102t-101.5 252zM145 688q0 -135 79 -216t212 -81q131 0 216 88t85 209q0 129 -82 212t-215 83q-131 0 -213 -83t-82 -212z" />
<glyph unicode=":" horiz-adv-x="299" d="M92 45q0 25 17.5 41t40 16t40 -16t17.5 -41t-17.5 -41t-40 -16t-40 16t-17.5 41zM92 512q0 25 17.5 41t40 16t40 -16t17.5 -41t-17.5 -41t-40 -16t-40 16t-17.5 41z" />
<glyph unicode=";" horiz-adv-x="299" d="M92 45q0 25 17.5 41t40 16t40 -16t17.5 -41q0 -16 -6 -29l-68 -159h-39l37 135q-39 8 -39 53zM92 512q0 25 17.5 41t40 16t40 -16t17.5 -41t-17.5 -41t-40 -16t-40 16t-17.5 41z" />
<glyph unicode="&#x37e;" horiz-adv-x="299" d="M92 45q0 25 17.5 41t40 16t40 -16t17.5 -41q0 -16 -6 -29l-68 -159h-39l37 135q-39 8 -39 53zM92 512q0 25 17.5 41t40 16t40 -16t17.5 -41t-17.5 -41t-40 -16t-40 16t-17.5 41z" />
<glyph unicode="&#x3c;" horiz-adv-x="638" d="M66 496v8l493 248v-64l-379 -190l379 -191v-63z" />
<glyph unicode="=" horiz-adv-x="638" d="M80 367v57h479v-57h-479zM80 571v58h479v-58h-479z" />
<glyph unicode="&#x3e;" horiz-adv-x="638" d="M80 244v63l379 191l-379 190v64l493 -252v-8z" />
<glyph unicode="?" horiz-adv-x="892" d="M63 1182q113 227 357 227q166 0 265 -100.5t99 -266.5q0 -152 -104.5 -257t-261.5 -107v-356h-58v411h50q139 0 225 89t86 220q0 150 -82 230t-219 80q-203 0 -307 -199zM332 45q0 25 17.5 41t40 16t39.5 -16t17 -41t-17 -41t-39.5 -16t-40 16t-17.5 41z" />
<glyph unicode="@" horiz-adv-x="1454" d="M82 315.5q0 278.5 185.5 472t459.5 193.5q283 0 464 -187.5t181 -453.5q0 -174 -67.5 -269.5t-165.5 -95.5q-78 0 -126 46.5t-59 123.5q-78 -162 -247 -161q-127 0 -214 93t-87 228t87 230.5t214 95.5q170 0 243 -158v141h62v-421q0 -162 127 -162q76 0 124 79.5 t48 229.5q0 244 -161 415t-423 171q-254 0 -419 -178.5t-165 -432.5q0 -256 165 -434t419 -178q160 0 285 78l28 -47q-139 -86 -313 -86q-274 0 -459.5 194.5t-185.5 473zM469 305q0 -111 67.5 -189.5t170 -78.5t174 79t71.5 189q0 113 -71.5 193t-174 80t-170 -80 t-67.5 -193z" />
<glyph unicode="A" horiz-adv-x="1302" d="M80 0l567 1427h8l568 -1427h-68l-111 281h-788l-111 -281h-65zM279 338h743l-371 938z" />
<glyph unicode="B" horiz-adv-x="1216" d="M203 0v1393h424q180 0 279.5 -92.5t99.5 -237.5q0 -211 -187 -291q143 -35 225 -135t82 -242q0 -172 -112.5 -283.5t-321.5 -111.5h-489zM268 57h414q188 0 283.5 93.5t95.5 245t-97.5 244.5t-281.5 93h-414v-676zM268 791h394q141 0 209.5 74.5t68.5 197.5t-80 197.5 t-239 74.5h-353v-544z" />
<glyph unicode="C" horiz-adv-x="1452" d="M293 1207q201 202 498 202q332 0 540 -254l-49 -37q-186 231 -491 232q-270 0 -451.5 -186.5t-181.5 -467t184 -467t461 -186.5q162 0 296 67.5t224 186.5l49 -37q-100 -131 -247.5 -203.5t-321.5 -72.5q-303 0 -509 201q-204 200 -204 505q0 313 203 517z" />
<glyph unicode="D" horiz-adv-x="1351" d="M203 0v1393h311q344 0 540.5 -191.5t196.5 -505.5q0 -315 -195.5 -505.5t-541.5 -190.5h-311zM268 59h236q330 0 505 173.5t175 464t-175 463.5t-505 173h-236v-1274z" />
<glyph unicode="E" horiz-adv-x="1140" d="M203 0v1393h803v-58h-738v-792h662v-58h-662v-428h766v-57h-831z" />
<glyph unicode="F" horiz-adv-x="1110" d="M203 0v1393h803v-58h-738v-792h670v-58h-670v-485h-65z" />
<glyph unicode="G" horiz-adv-x="1484" d="M90 696q0 305 205 509t496 204q326 0 520 -217l-47 -43q-176 201 -473 201q-270 0 -451.5 -186.5t-181.5 -467t185 -467t462 -186.5q311 0 493 172v270h-458v58h524v-353q-223 -207 -559 -206q-301 0 -508 202.5t-207 509.5z" />
<glyph unicode="H" horiz-adv-x="1368" d="M203 0v1393h65v-850h832v850h65v-1393h-65v485h-832v-485h-65z" />
<glyph unicode="I" horiz-adv-x="487" d="M211 0v1393h65v-1393h-65z" />
<glyph unicode="J" horiz-adv-x="921" d="M78 166l51 35q86 -158 266 -158q125 0 199 71.5t74 215.5v1063h65v-1067q0 -166 -94 -254t-244 -88q-208 0 -317 182z" />
<glyph unicode="K" horiz-adv-x="1163" d="M203 0v1393h65v-887l699 887h75l-542 -691l592 -702h-84l-549 655l-191 -239v-416h-65z" />
<glyph unicode="L" horiz-adv-x="1011" d="M203 0v1393h65v-1336h674v-57h-739z" />
<glyph unicode="M" horiz-adv-x="1691" d="M203 0v1421h8l635 -833l635 833h8v-1421h-62v1249l-581 -755h-6l-576 755v-1249h-61z" />
<glyph unicode="N" horiz-adv-x="1447" d="M203 0v1427h8l975 -1294v1260h59v-1428h-8l-975 1295v-1260h-59z" />
<glyph unicode="O" horiz-adv-x="1605" d="M90 696q0 305 207 509t506 204t506 -204t207 -509t-207 -508.5t-506 -203.5t-506 203.5t-207 508.5zM158 696.5q0 -280.5 184 -467t460.5 -186.5t461 186.5t184.5 467t-184.5 467t-461 186.5t-460.5 -186.5t-184 -467z" />
<glyph unicode="P" horiz-adv-x="1122" d="M203 0v1393h252q270 0 413.5 -145.5t143.5 -371t-143.5 -370t-413.5 -144.5h-187v-362h-65zM268 420h178q256 0 378 126t122 330.5t-122 331.5t-378 127h-178v-915z" />
<glyph unicode="Q" horiz-adv-x="1605" d="M90 696q0 305 207 509t506 204t506 -204t207 -509q0 -297 -197 -498.5t-485 -213.5v-238h-62v238q-289 12 -485.5 213.5t-196.5 498.5zM158 696q0 -272 174 -456.5t440 -196.5v281h62v-281q266 12 440 196.5t174 456.5q0 281 -184.5 467.5t-461 186.5t-460.5 -186.5 t-184 -467.5z" />
<glyph unicode="R" horiz-adv-x="1146" d="M203 0v1393h262q268 0 412.5 -145.5t144.5 -370.5q0 -178 -94 -311.5t-273 -180.5l324 -385h-82l-311 371q-74 -8 -121 -9h-197v-362h-65zM268 420h189q254 0 376.5 127t122.5 329.5t-124.5 330.5t-374.5 128h-189v-915z" />
<glyph unicode="S" horiz-adv-x="1067" d="M72 256l55 31q61 -115 165.5 -179.5t237.5 -64.5q164 0 257.5 79t93.5 210q0 123 -68 202.5t-227 155.5l-127 62q-164 80 -233.5 152.5t-69.5 197.5q0 137 96 222t240 85q242 0 364 -197l-49 -28q-104 168 -315 168q-119 0 -196 -71t-77 -179q0 -106 58.5 -164.5 t209.5 -132.5l125 -62q178 -88 255 -180t77 -231q0 -158 -110.5 -253t-303.5 -95q-313 0 -458 272z" />
<glyph unicode="T" horiz-adv-x="1064" d="M53 1335v58h959v-58h-447v-1335h-65v1335h-447z" />
<glyph unicode="U" horiz-adv-x="1298" d="M188 459v934h66v-928q0 -201 107.5 -312.5t285.5 -111.5t287.5 111.5t109.5 312.5v928h66v-934q0 -225 -129 -350t-334 -125q-203 0 -331 125t-128 350z" />
<glyph unicode="V" horiz-adv-x="1302" d="M80 1393h67l506 -1280l506 1280h64l-568 -1428h-8z" />
<glyph unicode="W" horiz-adv-x="1914" d="M74 1393h65l377 -1252l438 1286h9l438 -1286l377 1252h63l-434 -1428h-8l-441 1288l-442 -1288h-8z" />
<glyph unicode="X" horiz-adv-x="1241" d="M94 0l492 752l-416 641h72q379 -584 379 -586l383 586h67l-416 -637l492 -756h-72q-455 700 -457 700l-456 -700h-68z" />
<glyph unicode="Y" horiz-adv-x="1253" d="M66 1393h69l492 -897l493 897h68l-529 -963v-2v-2v-2v-2v-2v-2v-2v-2v-2v-2v-2v-2v-3v-2v-2v-2v-2v-2v-2v-2v-2v-2v-2v-2v-2v-2v-2v-2v-2v-2v-2v-2v-3v-4v-2v-2v-2v-2v-2v-2v-2v-2v-2v-2v-2v-4v-2v-2v-2v-2v-2v-5v-2v-2v-2v-2v-4v-2v-2v-2v-4v-2v-2v-4v-2v-2v-4v-3v-2v-4 v-2v-2v-4v-2v-2v-4v-2v-4v-2v-2v-4v-2v-5v-2v-4v-2v-4v-2v-4v-2v-4v-2v-4v-2v-4v-2v-5v-2v-4v-2v-4v-4v-2v-4v-2v-4v-4v-2v-4v-5v-2v-4v-2v-4v-4v-2v-4v-4v-2v-4v-4v-5v-2v-4v-4v-2v-4v-4v-4v-2v-4v-4v-4v-5v-2v-4v-4v-4v-4v-2v-4v-4v-4v-4v-2v-5v-20h-65v430z" />
<glyph unicode="Z" horiz-adv-x="1155" d="M72 0v6l872 1329h-782v58h887v-7l-873 -1329h901v-57h-1005z" />
<glyph unicode="[" horiz-adv-x="542" d="M172 -262v1716h289v-55h-225v-1606h225v-55h-289z" />
<glyph unicode="\" horiz-adv-x="825" d="M98 1454h66l635 -1716h-66z" />
<glyph unicode="]" horiz-adv-x="542" d="M82 -207h225v1606h-225v55h289v-1716h-289v55z" />
<glyph unicode="^" horiz-adv-x="536" d="M80 485v58h377v-58h-377z" />
<glyph unicode="_" horiz-adv-x="491" d="M-4 -209h500v-53h-500v53z" />
<glyph unicode="`" horiz-adv-x="1024" d="M352 1040h68l123 -270h-51z" />
<glyph unicode="a" horiz-adv-x="737" d="M84 190.5q0 98.5 73.5 148.5t182.5 50h221v25q0 201 -182 200q-135 0 -207 -112l-45 30q90 135 252 136q115 0 179.5 -62.5t64.5 -187.5v-418h-62v86q-74 -102 -223 -102q-111 0 -182.5 54t-71.5 152.5zM145 190q0 -152 201 -151q88 0 151.5 46t63.5 132v119h-213 q-88 0 -145.5 -35t-57.5 -111z" />
<glyph unicode="b" horiz-adv-x="856" d="M125 0v1454h61v-944q86 158 267 158q143 0 238 -98.5t95 -244t-95 -243.5t-238 -98q-180 0 -267 157v-141h-61zM182 326q0 -125 76 -206t194.5 -81t194.5 81t76 206t-76 205.5t-194.5 80.5t-194.5 -80.5t-76 -205.5z" />
<glyph unicode="c" horiz-adv-x="714" d="M70 326q0 145 95 243.5t234 98.5q152 0 244 -99l-43 -37q-74 82 -201 82q-117 0 -191.5 -81.5t-74.5 -206.5t74 -207t190 -82q143 0 224 94l43 -37q-92 -111 -267 -110q-139 0 -233 99.5t-94 242.5z" />
<glyph unicode="d" horiz-adv-x="858" d="M70 325.5q0 145.5 95 244t238 98.5q180 0 267 -158v944h61v-1454h-61v141q-86 -158 -267 -157q-143 0 -238 98t-95 243.5zM133 326q0 -125 76 -206t194.5 -81t194.5 81t76 206t-76 205.5t-194.5 80.5t-194.5 -80.5t-76 -205.5z" />
<glyph unicode="e" horiz-adv-x="790" d="M70 326q0 143 96 242.5t231 99.5q143 0 230.5 -98.5t91.5 -256.5h-586q4 -127 83 -201.5t196 -74.5q150 0 233 104l41 -37q-94 -121 -274 -120q-150 0 -246 98.5t-96 243.5zM135 367h520q-12 111 -77.5 179t-180.5 68q-106 0 -178 -69t-84 -178z" />
<glyph unicode="f" horiz-adv-x="454" d="M66 598v53h92v637q0 88 44 135t115 47q88 0 138 -65l-41 -39q-39 49 -97 49q-98 0 -98 -135v-629h170v-53h-170v-598h-61v598h-92z" />
<glyph unicode="g" horiz-adv-x="698" d="M12 -211q0 166 187 217q-113 16 -113 117q0 39 24.5 66.5t63.5 37.5q-84 74 -84 189q0 109 74 180.5t180 71.5q47 0 92 -17h234v-53h-152q80 -76 80 -182q0 -109 -73.5 -180.5t-180.5 -71.5q-70 0 -123 31q-80 -12 -80 -70q0 -43 41 -62.5t178 -23.5q168 -6 252 -70.5 t84 -169.5q0 -117 -100 -186.5t-248 -69.5q-150 0 -243 64.5t-93 181.5zM72 -211q0 -94 75.5 -143t200.5 -49q123 0 205 53t82 149q0 182 -293 183q-135 0 -202.5 -53.5t-67.5 -139.5zM150 416q0 -88 54 -144.5t140 -56.5t140.5 56.5t54.5 144.5t-54.5 144t-140.5 56 t-140 -56t-54 -144z" />
<glyph unicode="h" horiz-adv-x="796" d="M125 0v1454h61v-926q82 139 242 140q113 0 183.5 -66.5t70.5 -195.5v-406h-61v395q0 217 -195 217q-106 0 -173 -65.5t-67 -175.5v-371h-61z" />
<glyph unicode="i" horiz-adv-x="323" d="M111 993.5q0 20.5 15 35.5t35.5 15t36 -15t15.5 -35.5t-15.5 -36t-36 -15.5t-35.5 15.5t-15 36zM131 0v651h62v-651h-62z" />
<glyph unicode="j" horiz-adv-x="323" d="M-49 -418l31 45q29 -23 63 -22q86 0 86 116v930h62v-936q0 -80 -39 -123t-109 -43q-55 0 -94 33zM111 993.5q0 20.5 15 35.5t35.5 15t36 -15t15.5 -35.5t-15.5 -36t-36 -15.5t-35.5 15.5t-15 36z" />
<glyph unicode="k" horiz-adv-x="677" d="M125 0v1454h61v-1184l334 381h72l-254 -289l309 -362h-78l-270 317l-113 -129v-188h-61z" />
<glyph unicode="l" horiz-adv-x="323" d="M131 0v1454h62v-1454h-62z" />
<glyph unicode="m" horiz-adv-x="1169" d="M125 0v651h61v-100q25 53 79 85t124 32q150 0 211 -131q72 131 225 131q98 0 164 -62.5t66 -173.5v-432h-62v422q0 92 -45 141t-123 49q-96 0 -150 -55t-54 -156v-401h-62v420q0 94 -44 143t-126 49q-94 0 -148.5 -56t-54.5 -161v-395h-61z" />
<glyph unicode="n" horiz-adv-x="796" d="M125 0v651h61v-123q33 66 97.5 103t144.5 37q113 0 183.5 -66.5t70.5 -195.5v-406h-61v395q0 217 -195 217q-106 0 -173 -65.5t-67 -175.5v-371h-61z" />
<glyph unicode="o" horiz-adv-x="811" d="M70 325.5q0 143.5 98 243t237.5 99.5t237.5 -99.5t98 -243t-98 -242.5t-237.5 -99t-237.5 99t-98 242.5zM133 326q0 -123 78 -206t194.5 -83t194.5 83t78 206t-78 205.5t-194.5 82.5t-194.5 -82.5t-78 -205.5z" />
<glyph unicode="p" horiz-adv-x="856" d="M125 -434v1085h61v-141q86 158 267 158q143 0 238 -98.5t95 -244t-95 -243.5t-238 -98q-180 0 -267 157v-575h-61zM182 326q0 -125 76 -206t194.5 -81t194.5 81t76 206t-76 205.5t-194.5 80.5t-194.5 -80.5t-76 -205.5z" />
<glyph unicode="q" horiz-adv-x="858" d="M70 325.5q0 145.5 95 244t238 98.5q180 0 267 -158v141h61v-1085h-61v575q-86 -158 -267 -157q-143 0 -238 98t-95 243.5zM133 326q0 -125 76 -206t194.5 -81t194.5 81t76 206t-76 205.5t-194.5 80.5t-194.5 -80.5t-76 -205.5z" />
<glyph unicode="r" horiz-adv-x="509" d="M125 0v651h61v-114q68 131 195 131q59 0 100 -23l-22 -51q-27 16 -82 16q-78 0 -134.5 -67.5t-56.5 -165.5v-377h-61z" />
<glyph unicode="s" horiz-adv-x="634" d="M66 145l53 23q55 -131 215 -131q74 0 119 33.5t45 93t-44 91.5t-145 64q-104 35 -151 74t-47 115q0 72 53 116t139 44q143 0 205 -115l-51 -27q-51 88 -154 88q-59 0 -96 -28.5t-37 -77.5q0 -29 9 -49.5t35 -35.5t45.5 -23.5t64.5 -22.5q121 -39 178 -82t57 -129 t-62.5 -134t-162.5 -48q-196 -1 -268 161z" />
<glyph unicode="t" horiz-adv-x="473" d="M66 598v53h92v391h61v-391h170v-53h-170v-457q0 -102 82 -102q43 0 84 33l31 -45q-47 -43 -115 -43t-105.5 41t-37.5 108v465h-92z" />
<glyph unicode="u" horiz-adv-x="796" d="M115 246v405h61v-395q0 -217 195 -217q106 0 172.5 65.5t66.5 176.5v370h62v-651h-62v123q-33 -66 -97 -102.5t-144 -36.5q-117 0 -185.5 65.5t-68.5 196.5z" />
<glyph unicode="v" horiz-adv-x="675" d="M33 651h65l248 -549l236 549h61l-293 -676h-8z" />
<glyph unicode="w" horiz-adv-x="1058" d="M33 651h65l201 -536l227 561h6l232 -559l201 534h61l-258 -676h-8l-230 560l-231 -560h-8z" />
<glyph unicode="x" horiz-adv-x="702" d="M59 0l256 352l-215 299h72l180 -250l183 250h67l-215 -297l256 -354h-72l-221 307l-223 -307h-68z" />
<glyph unicode="y" horiz-adv-x="665" d="M33 651h67q240 -532 240 -534l229 534h64l-465 -1085h-64l205 477z" />
<glyph unicode="z" horiz-adv-x="651" d="M59 0v6l424 592h-377v53h482v-6l-424 -592h422v-53h-527z" />
<glyph unicode="{" horiz-adv-x="634" d="M53 487v56h97q61 0 91.5 32.5t30.5 114.5v467q0 297 242 297h39v-55h-39q-88 0 -133 -53.5t-45 -188.5v-467q0 -145 -103 -174q102 -25 103 -178v-303q0 -135 45 -188.5t133 -53.5h39v-55h-39q-242 0 -242 297v303q0 84 -30.5 116.5t-91.5 32.5h-97z" />
<glyph unicode="|" horiz-adv-x="444" d="M190 -262v1716h64v-1716h-64z" />
<glyph unicode="}" horiz-adv-x="634" d="M82 -207h39q88 0 133 53.5t45 188.5v305q0 145 102 174q-102 27 -102 178v465q0 135 -45 188.5t-133 53.5h-39v55h39q242 0 241 -297v-465q0 -84 31 -116.5t92 -32.5h97v-56h-97q-61 0 -92 -32.5t-31 -114.5v-305q0 -297 -241 -297h-39v55z" />
<glyph unicode="~" horiz-adv-x="667" d="M92 477q25 135 133 135q45 0 118 -45t101 -45q53 0 78 86l53 -10q-25 -135 -133 -135q-45 0 -117.5 45t-101.5 45q-53 0 -78 -86z" />
<glyph unicode="&#xa1;" horiz-adv-x="413" d="M150 1347.5q0 24.5 17 41t39.5 16.5t40 -16.5t17.5 -41t-17.5 -41t-40 -16.5t-39.5 16.5t-17 41zM174 0v1071h66v-1071h-66z" />
<glyph unicode="&#xa2;" horiz-adv-x="706" d="M70 326q0 133 80.5 227t205.5 111v204h60v-200q141 -6 227 -99l-43 -37q-68 76 -184 82v-577q131 6 205 94l43 -37q-86 -104 -248 -110v-201h-60v203q-123 16 -204.5 111.5t-81.5 228.5zM133 326q0 -113 61.5 -193t161.5 -94v571q-100 -14 -161.5 -93.5t-61.5 -190.5z " />
<glyph unicode="&#xa3;" horiz-adv-x="876" d="M35 118.5q0 59.5 42 98.5t107 39q63 0 121 -37q-8 94 -84 268h-147v56h123q-43 111 -43 202q0 129 87 212t230 83q219 0 320 -192l-54 -27q-82 162 -266 162q-119 0 -185.5 -65.5t-66.5 -174.5q0 -92 43 -200h336v-56h-313q78 -180 77 -309v-2q2 -2 35 -29.5t41 -34 t37 -25.5t46.5 -25.5t44 -13.5t52.5 -7q109 0 185 90l45 -41q-96 -106 -230 -106q-55 0 -109 23.5t-78.5 43t-78.5 64.5q-16 -55 -59 -93t-107 -38q-66 0 -108.5 37.5t-42.5 97zM94 119q0 -39 25.5 -60.5t66.5 -21.5q51 0 81 34.5t38 82.5q-63 49 -121 49q-39 0 -64.5 -22.5 t-25.5 -61.5z" />
<glyph unicode="&#xa5;" horiz-adv-x="1071" d="M78 1024h74l385 -641l385 641h71l-284 -467h233v-55h-266l-96 -158h362v-55h-375v-289h-63v289h-387v55h375l-97 158h-278v55h243z" />
<glyph unicode="&#xa6;" d="M88 438.5q0 24.5 17.5 41t40 16.5t40 -16.5t17.5 -41t-17.5 -41t-40 -16.5t-40 16.5t-17.5 41z" />
<glyph unicode="&#xa7;" horiz-adv-x="960" d="M63 406q0 141 134 215q-35 59 -35 143q0 121 86 198.5t221 77.5q219 0 328 -184l-52 -29q-88 156 -276 156q-109 0 -176.5 -61.5t-67.5 -157.5t46 -145.5t151 -92.5l240 -96q236 -94 235 -274q0 -135 -149 -193q51 -63 51 -149q0 -115 -81 -187.5t-231 -72.5 q-231 0 -364 159l45 39q125 -141 319 -141q119 0 183.5 55t64.5 148q0 84 -51 135t-160 94l-233 94q-117 47 -172.5 111t-55.5 158zM125 406q0 -80 43 -126.5t143 -86.5l234 -95q106 -41 168 -98q123 43 123 156q0 78 -42 126t-153 93l-240 96q-123 49 -176 111 q-100 -51 -100 -176z" />
<glyph unicode="&#xa8;" horiz-adv-x="1024" d="M356 829.5q0 20.5 15.5 35t34 14.5t34 -14.5t15.5 -35t-15.5 -35t-34 -14.5t-34 14.5t-15.5 35zM569 829.5q0 20.5 15.5 35t34 14.5t34 -14.5t15.5 -35t-15.5 -35t-34 -14.5t-34 14.5t-15.5 35z" />
<glyph unicode="&#xa9;" horiz-adv-x="1228" d="M84 512q0 225 154.5 376.5t376 151.5t376 -151.5t154.5 -376.5t-154.5 -376.5t-376 -151.5t-376 151.5t-154.5 376.5zM145 512q0 -203 134.5 -338t335 -135t334.5 135t134 338q0 205 -134 339t-334.5 134t-335 -134t-134.5 -339zM283 512q0 145 95 243.5t234 98.5 q147 0 244 -102l-45 -39q-76 86 -199 86q-115 0 -188.5 -82t-73.5 -205t73 -205t187 -82q137 0 221 99l46 -39q-96 -115 -267 -115q-139 0 -233 99.5t-94 242.5z" />
<glyph unicode="&#xaa;" horiz-adv-x="663" d="M76 608q0 88 65.5 133t163.5 45h201v23q0 102 -42 141t-124 39q-111 0 -186 -102l-39 31q74 123 225 122q225 0 225 -223v-377h-59v78q-66 -92 -203 -92q-100 0 -163.5 47t-63.5 135zM135 608q0 -131 176 -131q80 0 137.5 40t57.5 118v100h-193q-178 0 -178 -127z" />
<glyph unicode="&#xab;" horiz-adv-x="567" d="M66 317v9l157 247h70l-158 -251l158 -256h-70zM274 317v9l158 247h70l-158 -251l158 -256h-70z" />
<glyph unicode="&#xac;" d="M88 438.5q0 24.5 17.5 41t40 16.5t40 -16.5t17.5 -41t-17.5 -41t-40 -16.5t-40 16.5t-17.5 41z" />
<glyph unicode="&#xad;" horiz-adv-x="454" d="M80 328v53h295v-53h-295z" />
<glyph unicode="&#xae;" horiz-adv-x="759" d="M72 1104q0 129 89 217t218 88t219 -88t90 -217t-90 -216t-219 -87t-218 87t-89 216zM123 1104q0 -115 71.5 -186.5t184.5 -71.5t185.5 71.5t72.5 186.5t-72.5 187.5t-185.5 72.5t-184.5 -72.5t-71.5 -187.5zM272 932v350h90q76 0 114 -38t38 -97q0 -82 -76 -117l72 -98 h-57l-62 86q-8 -2 -29 -2h-40v-84h-50zM322 1057h38q102 0 103 90q0 94 -103 94h-38v-184z" />
<glyph unicode="&#xaf;" horiz-adv-x="1024" d="M360 784v54h304v-54h-304z" />
<glyph unicode="&#x2c9;" horiz-adv-x="1024" d="M360 784v54h304v-54h-304z" />
<glyph unicode="&#xb0;" horiz-adv-x="620" d="M106 836q0 84 59.5 142t143.5 58t142.5 -58t58.5 -142q0 -82 -58.5 -140.5t-142.5 -58.5t-143.5 58.5t-59.5 140.5zM164 835.5q0 -63.5 41 -105.5t104.5 -42t103.5 42t40 105.5t-40 106.5t-103.5 43t-104.5 -43t-41 -106.5z" />
<glyph unicode="&#xb2;" d="M88 438.5q0 24.5 17.5 41t40 16.5t40 -16.5t17.5 -41t-17.5 -41t-40 -16.5t-40 16.5t-17.5 41z" />
<glyph unicode="&#xb3;" d="M88 438.5q0 24.5 17.5 41t40 16.5t40 -16.5t17.5 -41t-17.5 -41t-40 -16.5t-40 16.5t-17.5 41z" />
<glyph unicode="&#xb4;" horiz-adv-x="1024" d="M481 770l123 270h68l-140 -270h-51z" />
<glyph unicode="&#xb5;" d="M88 438.5q0 24.5 17.5 41t40 16.5t40 -16.5t17.5 -41t-17.5 -41t-40 -16.5t-40 16.5t-17.5 41z" />
<glyph unicode="&#x3bc;" d="M88 438.5q0 24.5 17.5 41t40 16.5t40 -16.5t17.5 -41t-17.5 -41t-40 -16.5t-40 16.5t-17.5 41z" />
<glyph unicode="&#xb6;" horiz-adv-x="1064" d="M86 1042.5q0 149.5 97.5 250t252.5 100.5h490v-1393h-66v1335h-182v-1335h-66v692h-176q-156 0 -253 100.5t-97 250zM154 1042q0 -127 73.5 -209.5t208.5 -82.5h176v585h-176q-135 0 -208.5 -83t-73.5 -210z" />
<glyph unicode="&#xb7;" d="M88 438.5q0 24.5 17.5 41t40 16.5t40 -16.5t17.5 -41t-17.5 -41t-40 -16.5t-40 16.5t-17.5 41z" />
<glyph unicode="&#x2219;" d="M88 438.5q0 24.5 17.5 41t40 16.5t40 -16.5t17.5 -41t-17.5 -41t-40 -16.5t-40 16.5t-17.5 41z" />
<glyph unicode="&#xb8;" horiz-adv-x="1024" d="M373 -289l45 25q29 -66 102 -66q35 0 58.5 20.5t23.5 59.5q0 90 -100 90h-19v160h52v-113q53 -4 88.5 -42t35.5 -95q0 -61 -40.5 -96t-98.5 -35q-108 0 -147 92z" />
<glyph unicode="&#xb9;" d="M88 438.5q0 24.5 17.5 41t40 16.5t40 -16.5t17.5 -41t-17.5 -41t-40 -16.5t-40 16.5t-17.5 41z" />
<glyph unicode="&#xba;" horiz-adv-x="729" d="M63 733q0 131 87.5 219t214.5 88t215 -89t88 -218t-88 -218t-215 -89t-214.5 88t-87.5 219zM123 733.5q0 -110.5 68.5 -184.5t173 -74t173 74t68.5 184.5t-68.5 184t-173 73.5t-173 -73.5t-68.5 -184z" />
<glyph unicode="&#xbb;" horiz-adv-x="567" d="M66 66l157 251l-157 256h69l158 -251v-9l-158 -247h-69zM274 66l158 251l-158 256h70l158 -251v-9l-158 -247h-70z" />
<glyph unicode="&#xbc;" d="M88 438.5q0 24.5 17.5 41t40 16.5t40 -16.5t17.5 -41t-17.5 -41t-40 -16.5t-40 16.5t-17.5 41z" />
<glyph unicode="&#xbd;" d="M88 438.5q0 24.5 17.5 41t40 16.5t40 -16.5t17.5 -41t-17.5 -41t-40 -16.5t-40 16.5t-17.5 41z" />
<glyph unicode="&#xbe;" d="M88 438.5q0 24.5 17.5 41t40 16.5t40 -16.5t17.5 -41t-17.5 -41t-40 -16.5t-40 16.5t-17.5 41z" />
<glyph unicode="&#xbf;" horiz-adv-x="892" d="M109 350q0 152 104 257.5t262 107.5v356h57v-412h-49q-139 0 -225 -89t-86 -220q0 -150 82 -229.5t219 -79.5q203 0 307 199l49 -29q-113 -227 -356 -227q-166 0 -265 100t-99 266zM446 1347.5q0 24.5 17.5 41t40 16.5t40 -16.5t17.5 -41t-17.5 -41t-40 -16.5t-40 16.5 t-17.5 41z" />
<glyph unicode="&#xc0;" horiz-adv-x="1302" d="M80 0l567 1427h8l568 -1427h-68l-111 281h-788l-111 -281h-65zM279 338h743l-371 938zM485 1794h68l123 -270h-51z" />
<glyph unicode="&#xc1;" horiz-adv-x="1302" d="M80 0l567 1427h8l568 -1427h-68l-111 281h-788l-111 -281h-65zM279 338h743l-371 938zM628 1524l123 270h68l-140 -270h-51z" />
<glyph unicode="&#xc2;" horiz-adv-x="1302" d="M80 0l567 1427h8l568 -1427h-68l-111 281h-788l-111 -281h-65zM279 338h743l-371 938zM458 1524l189 229h6l188 -229h-53l-137 143l-139 -143h-54z" />
<glyph unicode="&#xc3;" horiz-adv-x="1302" d="M80 0l567 1427h8l568 -1427h-68l-111 281h-788l-111 -281h-65zM279 338h743l-371 938zM450 1526q25 129 113 129q43 0 98.5 -43t80 -43t36.5 19.5t23 62.5l51 -8q-25 -129 -113 -129q-43 0 -98.5 43t-80 43t-36.5 -19.5t-23 -62.5z" />
<glyph unicode="&#xc4;" horiz-adv-x="1302" d="M80 0l567 1427h8l568 -1427h-68l-111 281h-788l-111 -281h-65zM279 338h743l-371 938zM332 1355.5q0 20.5 15 35t33.5 14.5t34 -14.5t15.5 -35t-15.5 -34.5t-34 -14t-33.5 14t-15 34.5zM872 1355.5q0 20.5 15.5 35t34 14.5t34 -14.5t15.5 -35t-15.5 -34.5t-34 -14t-34 14 t-15.5 34.5z" />
<glyph unicode="&#xc5;" horiz-adv-x="1302" d="M80 0l551 1386q-53 6 -90 47.5t-37 96.5q0 59 43 103t104.5 44t104.5 -44t43 -103q0 -55 -36 -95t-91 -49l551 -1386h-68l-111 281h-788l-111 -281h-65zM279 338h743l-371 938zM559 1530q0 -43 25.5 -69.5t66.5 -26.5t66.5 26.5t25.5 69.5t-25.5 70.5t-66.5 27.5 t-66.5 -27.5t-25.5 -70.5z" />
<glyph unicode="&#xc6;" horiz-adv-x="1875" d="M57 0l914 1393h770v-58h-737v-792h661v-58h-661v-428h765v-57h-831v281h-627l-184 -281h-70zM348 338h590v899z" />
<glyph unicode="&#xc7;" horiz-adv-x="1452" d="M90 696q2 309 203 511t498 202q332 0 540 -254l-49 -37q-186 231 -491 232q-270 0 -451.5 -186.5t-181.5 -467t184 -467t461 -186.5q162 0 296 67.5t224 186.5l49 -37q-98 -127 -242.5 -200.5t-314.5 -75.5v-97q53 -4 89 -42t36 -95q0 -61 -41 -96t-98 -35 q-109 0 -148 92l45 25q29 -66 103 -66q35 0 58.5 20.5t23.5 59.5q0 90 -101 90h-18v144q-291 14 -483.5 213.5t-190.5 498.5z" />
<glyph unicode="&#xc8;" horiz-adv-x="1140" d="M203 0v1393h803v-58h-738v-792h662v-58h-662v-428h766v-57h-831zM461 1794h68l123 -270h-51z" />
<glyph unicode="&#xc9;" horiz-adv-x="1140" d="M203 0v1393h803v-58h-738v-792h662v-58h-662v-428h766v-57h-831zM579 1524l123 270h68l-140 -270h-51z" />
<glyph unicode="&#xca;" horiz-adv-x="1140" d="M203 0v1393h803v-58h-738v-792h662v-58h-662v-428h766v-57h-831zM421 1524l189 229h6l188 -229h-53l-137 143l-139 -143h-54z" />
<glyph unicode="&#xcb;" horiz-adv-x="1140" d="M203 0v1393h803v-58h-738v-792h662v-58h-662v-428h766v-57h-831zM452 1583.5q0 20.5 15.5 35t34 14.5t34 -14.5t15.5 -35t-15.5 -35t-34 -14.5t-34 14.5t-15.5 35zM665 1583.5q0 20.5 15.5 35t34 14.5t34 -14.5t15.5 -35t-15.5 -35t-34 -14.5t-34 14.5t-15.5 35z" />
<glyph unicode="&#xcc;" horiz-adv-x="487" d="M211 0v1393h65v-1393h-65zM84 1794h68l123 -270h-51z" />
<glyph unicode="&#xcd;" horiz-adv-x="487" d="M211 0v1393h65v-1393h-65zM213 1524l123 270h68l-140 -270h-51z" />
<glyph unicode="&#xce;" horiz-adv-x="487" d="M211 0v1393h65v-1393h-65zM51 1524l189 229h6l188 -229h-53l-137 143l-139 -143h-54z" />
<glyph unicode="&#xcf;" horiz-adv-x="487" d="M211 0v1393h65v-1393h-65zM88 1583.5q0 20.5 15.5 35t34 14.5t34 -14.5t15.5 -35t-15.5 -35t-34 -14.5t-34 14.5t-15.5 35zM301 1583.5q0 20.5 15.5 35t34 14.5t34 -14.5t15.5 -35t-15.5 -35t-34 -14.5t-34 14.5t-15.5 35z" />
<glyph unicode="&#xd0;" horiz-adv-x="1341" d="M43 485v58h160v850h311q344 0 540.5 -191.5t196.5 -505.5q0 -315 -195.5 -505.5t-541.5 -190.5h-311v485h-160zM268 59h236q330 0 505 173.5t175 464t-175 463.5t-505 173h-236v-790h385v-58h-385v-426z" />
<glyph unicode="&#xd1;" horiz-adv-x="1447" d="M203 0v1427h8l975 -1294v1260h59v-1428h-8l-975 1295v-1260h-59zM536 1526q25 129 113 129q43 0 98.5 -43t80 -43t36.5 19.5t23 62.5l51 -8q-25 -129 -113 -129q-43 0 -98.5 43t-80 43t-36.5 -19.5t-23 -62.5z" />
<glyph unicode="&#xd2;" horiz-adv-x="1605" d="M90 696q0 305 207 509t506 204t506 -204t207 -509t-207 -508.5t-506 -203.5t-506 203.5t-207 508.5zM158 696.5q0 -280.5 184 -467t460.5 -186.5t461 186.5t184.5 467t-184.5 467t-461 186.5t-460.5 -186.5t-184 -467zM643 1794h68l123 -270h-51z" />
<glyph unicode="&#xd3;" horiz-adv-x="1605" d="M90 696q0 305 207 509t506 204t506 -204t207 -509t-207 -508.5t-506 -203.5t-506 203.5t-207 508.5zM158 696.5q0 -280.5 184 -467t460.5 -186.5t461 186.5t184.5 467t-184.5 467t-461 186.5t-460.5 -186.5t-184 -467zM772 1524l123 270h68l-140 -270h-51z" />
<glyph unicode="&#xd4;" horiz-adv-x="1605" d="M90 696q0 305 207 509t506 204t506 -204t207 -509t-207 -508.5t-506 -203.5t-506 203.5t-207 508.5zM158 696.5q0 -280.5 184 -467t460.5 -186.5t461 186.5t184.5 467t-184.5 467t-461 186.5t-460.5 -186.5t-184 -467zM610 1524l189 229h6l188 -229h-53l-137 143 l-139 -143h-54z" />
<glyph unicode="&#xd5;" horiz-adv-x="1605" d="M90 696q0 305 207 509t506 204t506 -204t207 -509t-207 -508.5t-506 -203.5t-506 203.5t-207 508.5zM158 696.5q0 -280.5 184 -467t460.5 -186.5t461 186.5t184.5 467t-184.5 467t-461 186.5t-460.5 -186.5t-184 -467zM602 1526q25 129 113 129q43 0 98.5 -43t80 -43 t36.5 19.5t23 62.5l51 -8q-25 -129 -113 -129q-43 0 -98.5 43t-80 43t-36.5 -19.5t-23 -62.5z" />
<glyph unicode="&#xd6;" horiz-adv-x="1605" d="M90 696q0 305 207 509t506 204t506 -204t207 -509t-207 -508.5t-506 -203.5t-506 203.5t-207 508.5zM156 1355.5q0 20.5 15 35t33.5 14.5t34 -14.5t15.5 -35t-15.5 -34.5t-34 -14t-33.5 14t-15 34.5zM158 696.5q0 -280.5 184 -467t460.5 -186.5t461 186.5t184.5 467 t-184.5 467t-461 186.5t-460.5 -186.5t-184 -467zM1352 1355.5q0 20.5 15 35t33.5 14.5t34 -14.5t15.5 -35t-15.5 -34.5t-34 -14t-33.5 14t-15 34.5z" />
<glyph unicode="&#xd7;" d="M88 438.5q0 24.5 17.5 41t40 16.5t40 -16.5t17.5 -41t-17.5 -41t-40 -16.5t-40 16.5t-17.5 41z" />
<glyph unicode="&#xd8;" horiz-adv-x="1605" d="M90 696q0 305 207 509t506 204q279 0 481 -182l180 184l41 -39l-180 -184q190 -201 191 -492q0 -305 -207 -508.5t-506 -203.5q-279 0 -481 182l-183 -186l-41 38l183 187q-191 200 -191 491zM158 696q0 -266 166 -448l917 936q-178 166 -438 166q-276 0 -460.5 -186.5 t-184.5 -467.5zM362 209q182 -166 441 -166q276 0 460.5 186.5t184.5 466.5q0 266 -166 449q-918 -936 -920 -936z" />
<glyph unicode="&#xd9;" horiz-adv-x="1298" d="M188 459v934h66v-928q0 -201 107.5 -312.5t285.5 -111.5t287.5 111.5t109.5 312.5v928h66v-934q0 -225 -129 -350t-334 -125q-203 0 -331 125t-128 350zM489 1794h68l123 -270h-51z" />
<glyph unicode="&#xda;" horiz-adv-x="1298" d="M188 459v934h66v-928q0 -201 107.5 -312.5t285.5 -111.5t287.5 111.5t109.5 312.5v928h66v-934q0 -225 -129 -350t-334 -125q-203 0 -331 125t-128 350zM618 1524l123 270h68l-140 -270h-51z" />
<glyph unicode="&#xdb;" horiz-adv-x="1298" d="M188 459v934h66v-928q0 -201 107.5 -312.5t285.5 -111.5t287.5 111.5t109.5 312.5v928h66v-934q0 -225 -129 -350t-334 -125q-203 0 -331 125t-128 350zM456 1524l189 229h6l188 -229h-53l-137 143l-139 -143h-54z" />
<glyph unicode="&#xdc;" horiz-adv-x="1298" d="M188 459v934h66v-928q0 -201 107.5 -312.5t285.5 -111.5t287.5 111.5t109.5 312.5v928h66v-934q0 -225 -129 -350t-334 -125q-203 0 -331 125t-128 350zM494 1355.5q0 20.5 15 35t33.5 14.5t34 -14.5t15.5 -35t-15.5 -34.5t-34 -14t-33.5 14t-15 34.5zM707 1355.5 q0 20.5 15 35t33.5 14.5t34 -14.5t15.5 -35t-15.5 -34.5t-34 -14t-33.5 14t-15 34.5z" />
<glyph unicode="&#xdd;" horiz-adv-x="1253" d="M66 1393h69l492 -897l493 897h68l-529 -963v-2v-2v-2v-2v-2v-2v-2v-2v-2v-2v-2v-2v-3v-2v-2v-2v-2v-2v-2v-2v-2v-2v-2v-2v-2v-2v-2v-2v-2v-2v-2v-2v-3v-4v-2v-2v-2v-2v-2v-2v-2v-2v-2v-2v-2v-4v-2v-2v-2v-2v-2v-5v-2v-2v-2v-2v-4v-2v-2v-2v-4v-2v-2v-4v-2v-2v-4v-3v-2v-4 v-2v-2v-4v-2v-2v-4v-2v-4v-2v-2v-4v-2v-5v-2v-4v-2v-4v-2v-4v-2v-4v-2v-4v-2v-4v-2v-5v-2v-4v-2v-4v-4v-2v-4v-2v-4v-4v-2v-4v-5v-2v-4v-2v-4v-4v-2v-4v-4v-2v-4v-4v-5v-2v-4v-4v-2v-4v-4v-4v-2v-4v-4v-4v-5v-2v-4v-4v-4v-4v-2v-4v-4v-4v-4v-2v-5v-20h-65v430zM610 1524 l123 270h68l-140 -270h-51z" />
<glyph unicode="&#xde;" horiz-adv-x="1093" d="M203 0v1393h65v-170h187q270 0 413.5 -145.5t143.5 -371t-143.5 -369.5t-413.5 -144h-187v-193h-65zM268 250h178q256 0 378 126t122 330.5t-122 331.5t-378 127h-178v-915z" />
<glyph unicode="&#xdf;" horiz-adv-x="819" d="M125 0v1210q0 131 63.5 195.5t157.5 64.5q98 0 159.5 -71.5t61.5 -204.5v-563q-158 -20 -157 -115q0 -55 36.5 -85t114.5 -54q98 -33 146.5 -79t48.5 -134q0 -84 -54.5 -132t-152.5 -48q-170 0 -244 151l49 27q35 -63 79 -94t116 -31q70 0 107.5 33.5t37.5 91.5 q0 68 -31.5 97.5t-115.5 59.5q-102 35 -149.5 78t-47.5 119q0 121 158 160v516q0 223 -162 223q-160 0 -160 -213v-1202h-61z" />
<glyph unicode="&#xe0;" horiz-adv-x="737" d="M84 190.5q0 98.5 73.5 148.5t182.5 50h221v25q0 201 -182 200q-135 0 -207 -112l-45 30q90 135 252 136q115 0 179.5 -62.5t64.5 -187.5v-418h-62v86q-74 -102 -223 -102q-111 0 -182.5 54t-71.5 152.5zM145 190q0 -152 201 -151q88 0 151.5 46t63.5 132v119h-213 q-88 0 -145.5 -35t-57.5 -111zM209 1040h68l123 -270h-51z" />
<glyph unicode="&#xe1;" horiz-adv-x="737" d="M84 190.5q0 98.5 73.5 148.5t182.5 50h221v25q0 201 -182 200q-135 0 -207 -112l-45 30q90 135 252 136q115 0 179.5 -62.5t64.5 -187.5v-418h-62v86q-74 -102 -223 -102q-111 0 -182.5 54t-71.5 152.5zM145 190q0 -152 201 -151q88 0 151.5 46t63.5 132v119h-213 q-88 0 -145.5 -35t-57.5 -111zM350 770l123 270h68l-140 -270h-51z" />
<glyph unicode="&#xe2;" horiz-adv-x="737" d="M84 190.5q0 98.5 73.5 148.5t182.5 50h221v25q0 201 -182 200q-135 0 -207 -112l-45 30q90 135 252 136q115 0 179.5 -62.5t64.5 -187.5v-418h-62v86q-74 -102 -223 -102q-111 0 -182.5 54t-71.5 152.5zM145 190q0 -152 201 -151q88 0 151.5 46t63.5 132v119h-213 q-88 0 -145.5 -35t-57.5 -111zM194 770l189 229h6l188 -229h-53l-137 143l-139 -143h-54z" />
<glyph unicode="&#xe3;" horiz-adv-x="737" d="M84 190.5q0 98.5 73.5 148.5t182.5 50h221v25q0 201 -182 200q-135 0 -207 -112l-45 30q90 135 252 136q115 0 179.5 -62.5t64.5 -187.5v-418h-62v86q-74 -102 -223 -102q-111 0 -182.5 54t-71.5 152.5zM145 190q0 -152 201 -151q88 0 151.5 46t63.5 132v119h-213 q-88 0 -145.5 -35t-57.5 -111zM168 772q25 129 113 129q43 0 98.5 -43t80 -43t36.5 19.5t23 62.5l51 -8q-25 -129 -113 -129q-43 0 -98.5 43t-80 43t-36.5 -19.5t-23 -62.5z" />
<glyph unicode="&#xe4;" horiz-adv-x="737" d="M84 190.5q0 98.5 73.5 148.5t182.5 50h221v25q0 201 -182 200q-135 0 -207 -112l-45 30q90 135 252 136q115 0 179.5 -62.5t64.5 -187.5v-418h-62v86q-74 -102 -223 -102q-111 0 -182.5 54t-71.5 152.5zM145 190q0 -152 201 -151q88 0 151.5 46t63.5 132v119h-213 q-88 0 -145.5 -35t-57.5 -111zM231 829.5q0 20.5 15.5 35t34 14.5t34 -14.5t15.5 -35t-15.5 -35t-34 -14.5t-34 14.5t-15.5 35zM444 829.5q0 20.5 15.5 35t34 14.5t34 -14.5t15.5 -35t-15.5 -35t-34 -14.5t-34 14.5t-15.5 35z" />
<glyph unicode="&#xe5;" horiz-adv-x="737" d="M84 190.5q0 98.5 73.5 148.5t182.5 50h221v25q0 201 -182 200q-135 0 -207 -112l-45 30q90 135 252 136q115 0 179.5 -62.5t64.5 -187.5v-418h-62v86q-74 -102 -223 -102q-111 0 -182.5 54t-71.5 152.5zM145 190q0 -152 201 -151q88 0 151.5 46t63.5 132v119h-213 q-88 0 -145.5 -35t-57.5 -111zM232 905.5q0 59.5 43 103.5t104 44t104 -44t43 -103.5t-43 -102.5t-104 -43t-104 43t-43 102.5zM287 905q0 -43 25.5 -69.5t66.5 -26.5t66.5 26.5t25.5 69.5t-25.5 71t-66.5 28t-66.5 -28t-25.5 -71z" />
<glyph unicode="&#xe6;" horiz-adv-x="1280" d="M84 184q0 98 71.5 145.5t180.5 47.5h225v37q0 201 -182 200q-135 0 -207 -112l-45 30q90 135 252 136q197 0 229 -176q41 82 115 129t164 47q141 0 228 -95.5t93 -248.5h-585q0 -131 78.5 -209t199.5 -78q150 0 234 104l41 -37q-94 -121 -275 -120q-102 0 -179 48 t-118 132q-18 -70 -67.5 -112t-97.5 -55t-101 -13q-111 0 -182.5 53t-71.5 147zM145 184q0 -72 55.5 -108.5t145.5 -36.5q86 0 150.5 49t64.5 135v101h-217q-199 -1 -199 -140zM627 377h518q-16 106 -80 171.5t-178 65.5q-102 0 -173 -66.5t-87 -170.5z" />
<glyph unicode="&#xe7;" horiz-adv-x="714" d="M70 326q0 145 95 243.5t234 98.5q152 0 244 -99l-43 -37q-74 82 -201 82q-117 0 -191.5 -81.5t-74.5 -206.5t74 -207t190 -82q143 0 224 94l43 -37q-88 -106 -261 -110v-97q53 -4 89 -42t36 -95q0 -61 -41 -96t-98 -35q-109 0 -147 92l45 25q29 -66 102 -66 q35 0 58.5 20.5t23.5 59.5q0 90 -100 90h-19v146q-123 16 -202.5 112.5t-79.5 227.5z" />
<glyph unicode="&#xe8;" horiz-adv-x="790" d="M70 326q0 143 96 242.5t231 99.5q143 0 230.5 -98.5t91.5 -256.5h-586q4 -127 83 -201.5t196 -74.5q150 0 233 104l41 -37q-94 -121 -274 -120q-150 0 -246 98.5t-96 243.5zM135 367h520q-12 111 -77.5 179t-180.5 68q-106 0 -178 -69t-84 -178zM235 1040h68l123 -270 h-51z" />
<glyph unicode="&#xe9;" horiz-adv-x="790" d="M70 326q0 143 96 242.5t231 99.5q143 0 230.5 -98.5t91.5 -256.5h-586q4 -127 83 -201.5t196 -74.5q150 0 233 104l41 -37q-94 -121 -274 -120q-150 0 -246 98.5t-96 243.5zM135 367h520q-12 111 -77.5 179t-180.5 68q-106 0 -178 -69t-84 -178zM364 770l123 270h68 l-140 -270h-51z" />
<glyph unicode="&#xea;" horiz-adv-x="790" d="M70 326q0 143 96 242.5t231 99.5q143 0 230.5 -98.5t91.5 -256.5h-586q4 -127 83 -201.5t196 -74.5q150 0 233 104l41 -37q-94 -121 -274 -120q-150 0 -246 98.5t-96 243.5zM135 367h520q-12 111 -77.5 179t-180.5 68q-106 0 -178 -69t-84 -178zM202 770l189 229h6 l188 -229h-53l-137 143l-139 -143h-54z" />
<glyph unicode="&#xeb;" horiz-adv-x="790" d="M70 326q0 143 96 242.5t231 99.5q143 0 230.5 -98.5t91.5 -256.5h-586q4 -127 83 -201.5t196 -74.5q150 0 233 104l41 -37q-94 -121 -274 -120q-150 0 -246 98.5t-96 243.5zM135 367h520q-12 111 -77.5 179t-180.5 68q-106 0 -178 -69t-84 -178zM239 829.5 q0 20.5 15.5 35t34 14.5t34 -14.5t15.5 -35t-15.5 -35t-34 -14.5t-34 14.5t-15.5 35zM452 829.5q0 20.5 15.5 35t34 14.5t34 -14.5t15.5 -35t-15.5 -35t-34 -14.5t-34 14.5t-15.5 35z" />
<glyph unicode="&#xec;" horiz-adv-x="323" d="M131 0v651h62v-651h-62zM2 1040h68l123 -270h-51z" />
<glyph unicode="&#xed;" horiz-adv-x="323" d="M131 0v651h62v-651h-62zM131 770l123 270h68l-140 -270h-51z" />
<glyph unicode="&#xee;" horiz-adv-x="323" d="M131 0v651h62v-651h-62zM-31 770l189 229h6l188 -229h-53l-137 143l-139 -143h-54z" />
<glyph unicode="&#xef;" horiz-adv-x="323" d="M131 0v651h62v-651h-62zM6 829.5q0 20.5 15.5 35t34 14.5t34 -14.5t15.5 -35t-15.5 -35t-34 -14.5t-34 14.5t-15.5 35zM219 829.5q0 20.5 15.5 35t34 14.5t34 -14.5t15.5 -35t-15.5 -35t-34 -14.5t-34 14.5t-15.5 35z" />
<glyph unicode="&#xf0;" horiz-adv-x="811" d="M70 325.5q0 143.5 98 243t238 99.5q184 0 268 -162q-29 352 -234 624l-30 -24q-33 -27 -64 -53l-31 -27l-32 39l127 106q-88 109 -209 220l32 41q127 -115 220 -226l122 105l33 -39l-125 -105q258 -340 258 -798q0 -188 -93 -286.5t-242 -98.5q-139 0 -237.5 99 t-98.5 242.5zM133 326q0 -123 78 -206t194.5 -83t194.5 83t78 206t-78 205.5t-194.5 82.5t-194.5 -82.5t-78 -205.5z" />
<glyph unicode="&#xf1;" horiz-adv-x="796" d="M125 0v651h61v-123q33 66 97.5 103t144.5 37q113 0 183.5 -66.5t70.5 -195.5v-406h-61v395q0 217 -195 217q-106 0 -173 -65.5t-67 -175.5v-371h-61zM196 772q25 129 113 129q43 0 98.5 -43t80 -43t36.5 19.5t23 62.5l51 -8q-25 -129 -113 -129q-43 0 -98.5 43t-80 43 t-36.5 -19.5t-23 -62.5z" />
<glyph unicode="&#xf2;" horiz-adv-x="811" d="M70 325.5q0 143.5 98 243t237.5 99.5t237.5 -99.5t98 -243t-98 -242.5t-237.5 -99t-237.5 99t-98 242.5zM133 326q0 -123 78 -206t194.5 -83t194.5 83t78 206t-78 205.5t-194.5 82.5t-194.5 -82.5t-78 -205.5zM246 1040h68l123 -270h-51z" />
<glyph unicode="&#xf3;" horiz-adv-x="811" d="M70 325.5q0 143.5 98 243t237.5 99.5t237.5 -99.5t98 -243t-98 -242.5t-237.5 -99t-237.5 99t-98 242.5zM133 326q0 -123 78 -206t194.5 -83t194.5 83t78 206t-78 205.5t-194.5 82.5t-194.5 -82.5t-78 -205.5zM375 770l123 270h68l-140 -270h-51z" />
<glyph unicode="&#xf4;" horiz-adv-x="811" d="M70 325.5q0 143.5 98 243t237.5 99.5t237.5 -99.5t98 -243t-98 -242.5t-237.5 -99t-237.5 99t-98 242.5zM133 326q0 -123 78 -206t194.5 -83t194.5 83t78 206t-78 205.5t-194.5 82.5t-194.5 -82.5t-78 -205.5zM213 770l189 229h6l188 -229h-53l-137 143l-139 -143h-54z " />
<glyph unicode="&#xf5;" horiz-adv-x="811" d="M70 325.5q0 143.5 98 243t237.5 99.5t237.5 -99.5t98 -243t-98 -242.5t-237.5 -99t-237.5 99t-98 242.5zM133 326q0 -123 78 -206t194.5 -83t194.5 83t78 206t-78 205.5t-194.5 82.5t-194.5 -82.5t-78 -205.5zM205 772q25 129 113 129q43 0 98.5 -43t80 -43t36.5 19.5 t23 62.5l51 -8q-25 -129 -113 -129q-43 0 -98.5 43t-80 43t-36.5 -19.5t-23 -62.5z" />
<glyph unicode="&#xf6;" horiz-adv-x="811" d="M70 325.5q0 143.5 98 243t237.5 99.5t237.5 -99.5t98 -243t-98 -242.5t-237.5 -99t-237.5 99t-98 242.5zM133 326q0 -123 78 -206t194.5 -83t194.5 83t78 206t-78 205.5t-194.5 82.5t-194.5 -82.5t-78 -205.5zM250 829.5q0 20.5 15.5 35t34 14.5t34 -14.5t15.5 -35 t-15.5 -35t-34 -14.5t-34 14.5t-15.5 35zM463 829.5q0 20.5 15.5 35t34 14.5t34 -14.5t15.5 -35t-15.5 -35t-34 -14.5t-34 14.5t-15.5 35z" />
<glyph unicode="&#xf7;" d="M88 438.5q0 24.5 17.5 41t40 16.5t40 -16.5t17.5 -41t-17.5 -41t-40 -16.5t-40 16.5t-17.5 41z" />
<glyph unicode="&#xf8;" horiz-adv-x="811" d="M39 18l102 95q-72 94 -71 213q0 143 98 242.5t238 99.5q133 0 229 -93l102 95l35 -37q-102 -94 -102 -96q72 -92 71 -211q0 -143 -98 -242.5t-237 -99.5q-133 0 -232 92l-100 -94zM133 326q0 -98 49 -174l414 387q-72 76 -190 75q-117 0 -195 -82.5t-78 -205.5zM215 113 q72 -76 191 -76q117 0 194.5 83t77.5 206q0 98 -49 174z" />
<glyph unicode="&#xf9;" horiz-adv-x="796" d="M115 246v405h61v-395q0 -217 195 -217q106 0 172.5 65.5t66.5 176.5v370h62v-651h-62v123q-33 -66 -97 -102.5t-144 -36.5q-117 0 -185.5 65.5t-68.5 196.5zM237 1040h68l123 -270h-51z" />
<glyph unicode="&#xfa;" horiz-adv-x="796" d="M115 246v405h61v-395q0 -217 195 -217q106 0 172.5 65.5t66.5 176.5v370h62v-651h-62v123q-33 -66 -97 -102.5t-144 -36.5q-117 0 -185.5 65.5t-68.5 196.5zM366 770l123 270h68l-140 -270h-51z" />
<glyph unicode="&#xfb;" horiz-adv-x="796" d="M115 246v405h61v-395q0 -217 195 -217q106 0 172.5 65.5t66.5 176.5v370h62v-651h-62v123q-33 -66 -97 -102.5t-144 -36.5q-117 0 -185.5 65.5t-68.5 196.5zM204 770l189 229h6l188 -229h-53l-137 143l-139 -143h-54z" />
<glyph unicode="&#xfc;" horiz-adv-x="796" d="M115 246v405h61v-395q0 -217 195 -217q106 0 172.5 65.5t66.5 176.5v370h62v-651h-62v123q-33 -66 -97 -102.5t-144 -36.5q-117 0 -185.5 65.5t-68.5 196.5zM241 829.5q0 20.5 15.5 35t34 14.5t34 -14.5t15.5 -35t-15.5 -35t-34 -14.5t-34 14.5t-15.5 35zM454 829.5 q0 20.5 15.5 35t34 14.5t34 -14.5t15.5 -35t-15.5 -35t-34 -14.5t-34 14.5t-15.5 35z" />
<glyph unicode="&#xfd;" horiz-adv-x="665" d="M33 651h67q240 -532 240 -534l229 534h64l-465 -1085h-64l205 477zM301 770l123 270h68l-140 -270h-51z" />
<glyph unicode="&#xfe;" horiz-adv-x="856" d="M125 -434v1888h61v-944q86 158 267 158q143 0 238 -98.5t95 -244t-95 -243.5t-238 -98q-180 0 -267 157v-575h-61zM182 326q0 -125 76 -206t194.5 -81t194.5 81t76 206t-76 205.5t-194.5 80.5t-194.5 -80.5t-76 -205.5z" />
<glyph unicode="&#xff;" horiz-adv-x="665" d="M33 651h67q240 -532 240 -534l229 534h64l-465 -1085h-64l205 477zM180 829.5q0 20.5 15.5 35t34 14.5t34 -14.5t15.5 -35t-15.5 -35t-34 -14.5t-34 14.5t-15.5 35zM393 829.5q0 20.5 15.5 35t34 14.5t34 -14.5t15.5 -35t-15.5 -35t-34 -14.5t-34 14.5t-15.5 35z" />
<glyph unicode="&#x131;" horiz-adv-x="323" d="M131 0v651h62v-651h-62z" />
<glyph unicode="&#x152;" horiz-adv-x="1970" d="M90 696q0 315 195.5 506t541.5 191h1008v-58h-737v-792h661v-58h-661v-428h766v-57h-1037q-344 0 -540.5 191.5t-196.5 504.5zM158 696.5q0 -290.5 175 -464t505 -173.5h194v1274h-194q-330 0 -505 -173t-175 -463.5z" />
<glyph unicode="&#x153;" horiz-adv-x="1398" d="M70 325.5q0 143.5 98 243t238 99.5q106 0 187 -59.5t116 -155.5q35 96 114.5 155.5t182.5 59.5q143 0 230 -98.5t91 -256.5h-586q4 -127 83 -201.5t196 -74.5q150 0 233 104l41 -37q-94 -121 -274 -120q-113 0 -195 57t-116 156q-35 -96 -116 -154.5t-187 -58.5 q-139 0 -237.5 99t-98.5 242.5zM133 326q0 -123 78 -206t194.5 -83t194.5 83t78 206t-78 205.5t-194.5 82.5t-194.5 -82.5t-78 -205.5zM743 367h521q-12 111 -78 179t-180 68q-106 0 -178.5 -69t-84.5 -178z" />
<glyph unicode="&#x178;" horiz-adv-x="1253" d="M66 1393h69l492 -897l493 897h68l-529 -963v-2v-2v-2v-2v-2v-2v-2v-2v-2v-2v-2v-2v-3v-2v-2v-2v-2v-2v-2v-2v-2v-2v-2v-2v-2v-2v-2v-2v-2v-2v-2v-2v-3v-4v-2v-2v-2v-2v-2v-2v-2v-2v-2v-2v-2v-4v-2v-2v-2v-2v-2v-5v-2v-2v-2v-2v-4v-2v-2v-2v-4v-2v-2v-4v-2v-2v-4v-3v-2v-4 v-2v-2v-4v-2v-2v-4v-2v-4v-2v-2v-4v-2v-5v-2v-4v-2v-4v-2v-4v-2v-4v-2v-4v-2v-4v-2v-5v-2v-4v-2v-4v-4v-2v-4v-2v-4v-4v-2v-4v-5v-2v-4v-2v-4v-4v-2v-4v-4v-2v-4v-4v-5v-2v-4v-4v-2v-4v-4v-4v-2v-4v-4v-4v-5v-2v-4v-4v-4v-4v-2v-4v-4v-4v-4v-2v-5v-20h-65v430zM485 1355.5 q0 20.5 15.5 35t34 14.5t34 -14.5t15.5 -35t-15.5 -34.5t-34 -14t-34 14t-15.5 34.5zM698 1355.5q0 20.5 15.5 35t34 14.5t34 -14.5t15.5 -35t-15.5 -34.5t-34 -14t-34 14t-15.5 34.5z" />
<glyph unicode="&#x2c6;" horiz-adv-x="1024" d="M319 770l189 229h6l188 -229h-53l-137 143l-139 -143h-54z" />
<glyph unicode="&#x2da;" horiz-adv-x="1024" d="M365 905.5q0 59.5 43 103.5t104 44t104 -44t43 -103.5t-43 -102.5t-104 -43t-104 43t-43 102.5zM420 905q0 -43 25.5 -69.5t66.5 -26.5t66.5 26.5t25.5 69.5t-25.5 71t-66.5 28t-66.5 -28t-25.5 -71z" />
<glyph unicode="&#x2dc;" horiz-adv-x="1024" d="M311 772q25 129 113 129q43 0 98.5 -43t80 -43t36.5 19.5t23 62.5l51 -8q-25 -129 -113 -129q-43 0 -98.5 43t-80 43t-36.5 -19.5t-23 -62.5z" />
<glyph unicode="&#x2000;" horiz-adv-x="897" />
<glyph unicode="&#x2001;" horiz-adv-x="1794" />
<glyph unicode="&#x2002;" horiz-adv-x="897" />
<glyph unicode="&#x2003;" horiz-adv-x="1794" />
<glyph unicode="&#x2004;" horiz-adv-x="598" />
<glyph unicode="&#x2005;" horiz-adv-x="448" />
<glyph unicode="&#x2006;" horiz-adv-x="299" />
<glyph unicode="&#x2007;" horiz-adv-x="299" />
<glyph unicode="&#x2008;" horiz-adv-x="223" />
<glyph unicode="&#x2009;" horiz-adv-x="358" />
<glyph unicode="&#x200a;" horiz-adv-x="98" />
<glyph unicode="&#x2010;" horiz-adv-x="454" d="M80 328v53h295v-53h-295z" />
<glyph unicode="&#x2011;" horiz-adv-x="454" d="M80 328v53h295v-53h-295z" />
<glyph unicode="&#x2012;" horiz-adv-x="454" d="M80 328v53h295v-53h-295z" />
<glyph unicode="&#x2013;" horiz-adv-x="792" d="M80 328v53h633v-53h-633z" />
<glyph unicode="&#x2014;" horiz-adv-x="1232" d="M80 328v53h1073v-53h-1073z" />
<glyph unicode="&#x2018;" d="M88 1214q0 14 6 29l68 150h39l-37 -125q39 -8 39 -54q0 -25 -17.5 -41t-40 -16t-40 16t-17.5 41z" />
<glyph unicode="&#x2019;" d="M88 1348q0 25 17.5 41t40 16t40 -16.5t17.5 -40.5q0 -12 -6 -29l-68 -150h-39l37 125q-39 9 -39 54z" />
<glyph unicode="&#x201a;" d="M88 45q0 25 17.5 41t40 16t40 -16t17.5 -41q0 -12 -6 -29l-68 -149h-39l37 125q-39 8 -39 53z" />
<glyph unicode="&#x201c;" horiz-adv-x="499" d="M88 1214q0 14 6 29l68 150h39l-37 -125q39 -8 39 -54q0 -25 -17.5 -41t-40 -16t-40 16t-17.5 41zM297 1214q0 14 6 29l68 150h39l-37 -125q39 -8 39 -54q0 -25 -17.5 -41t-40 -16t-40 16t-17.5 41z" />
<glyph unicode="&#x201d;" horiz-adv-x="499" d="M88 1348q0 25 17.5 41t40 16t40 -16.5t17.5 -40.5q0 -12 -6 -29l-68 -150h-39l37 125q-39 9 -39 54zM297 1348q0 25 17.5 41t40 16t40 -16.5t17.5 -40.5q0 -12 -6 -29l-68 -150h-39l37 125q-39 9 -39 54z" />
<glyph unicode="&#x201e;" horiz-adv-x="499" d="M88 45q0 25 17.5 41t40 16t40 -16t17.5 -41q0 -12 -6 -29l-68 -149h-39l37 125q-39 8 -39 53zM297 45q0 25 17.5 41t40 16t40 -16t17.5 -41q0 -12 -6 -29l-68 -149h-39l37 125q-39 8 -39 53z" />
<glyph unicode="&#x2022;" horiz-adv-x="507" d="M111 451q0 61 42 102t101 41t101 -41t42 -102q0 -59 -42 -101.5t-101 -42.5t-101 42.5t-42 101.5z" />
<glyph unicode="&#x2026;" horiz-adv-x="888" d="M88 45q0 25 17.5 41t40 16t40 -16t17.5 -41t-17.5 -41t-40 -16t-40 16t-17.5 41zM387 45q0 25 17.5 41t40 16t40 -16t17.5 -41t-17.5 -41t-40 -16t-40 16t-17.5 41zM686 45q0 25 17.5 41t40 16t40 -16t17.5 -41t-17.5 -41t-40 -16t-40 16t-17.5 41z" />
<glyph unicode="&#x202f;" horiz-adv-x="358" />
<glyph unicode="&#x2039;" horiz-adv-x="358" d="M66 317v9l157 247h70l-158 -251l158 -256h-70z" />
<glyph unicode="&#x203a;" horiz-adv-x="358" d="M66 66l157 251l-157 256h69l158 -251v-9l-158 -247h-69z" />
<glyph unicode="&#x205f;" horiz-adv-x="448" />
<glyph unicode="&#x20ac;" horiz-adv-x="1257" d="M80 373v55h170q-6 39 -6 84q0 25 4 74h-168v55h178q41 176 182.5 287.5t323.5 111.5q240 0 399 -186l-45 -37q-143 166 -354 166q-160 0 -279.5 -94t-160.5 -248h557v-55h-568q-4 -49 -4 -74q0 -45 6 -84h566v-55h-553q41 -150 159.5 -241t276.5 -91q111 0 207 48 t157 130l46 -35q-156 -201 -410 -200q-180 0 -318.5 107.5t-185.5 281.5h-180z" />
<glyph unicode="&#x2122;" horiz-adv-x="1038" d="M66 1341v52h311v-52h-127v-395h-55v395h-129zM471 946v453h6l215 -248l215 248h6v-453h-53v328l-168 -199l-168 199v-328h-53z" />
<glyph unicode="&#xe000;" horiz-adv-x="650" d="M0 650h650v-650h-650v650z" />
<glyph unicode="&#xfb01;" horiz-adv-x="737" d="M66 598v53h92v637q0 88 44 135t115 47q88 0 138 -65l-41 -39q-39 49 -97 49q-98 0 -98 -135v-629h387v-651h-61v598h-326v-598h-61v598h-92zM524 993.5q0 20.5 15.5 35.5t36 15t36 -15t15.5 -35.5t-15.5 -36t-36 -15.5t-36 15.5t-15.5 36z" />
<glyph unicode="&#xfb02;" horiz-adv-x="737" d="M66 598v53h92v578q0 115 63.5 178t161.5 63q100 0 161.5 -62t61.5 -179v-1229h-61v1221q0 195 -162 194q-164 0 -164 -194v-570h170v-53h-170v-598h-61v598h-92z" />
<glyph unicode="&#xfb03;" horiz-adv-x="1124" d="M66 598v53h92v637q0 88 44 135t115 47q88 0 138 -65l-41 -39q-39 49 -97 49q-98 0 -98 -135v-629h326v637q0 88 44 135t116 47q88 0 137 -65l-41 -39q-39 49 -96 49q-98 0 -99 -135v-629h387v-651h-61v598h-326v-598h-61v598h-326v-598h-61v598h-92zM911 993.5 q0 20.5 15.5 35.5t36 15t36 -15t15.5 -35.5t-15.5 -36t-36 -15.5t-36 15.5t-15.5 36z" />
<glyph unicode="&#xfb04;" horiz-adv-x="1124" d="M66 598v53h92v637q0 88 44 135t115 47q88 0 138 -65l-41 -39q-39 49 -97 49q-98 0 -98 -135v-629h326v578q0 115 63.5 178t161.5 63q100 0 161.5 -62t61.5 -179v-1229h-61v1221q0 195 -162 194q-164 0 -164 -194v-570h170v-53h-170v-598h-61v598h-326v-598h-61v598h-92z " />
</font>
</defs>
</svg>
